<?xml version="1.0" encoding="UTF-8"?>
<svg width="20px" height="20px" viewBox="0 0 20 20" version="1.1" xmlns="http://www.w3.org/2000/svg" xmlns:xlink="http://www.w3.org/1999/xlink">
    <!-- Generator: Sketch 53.2 (72643) - https://sketchapp.com -->
    <title>facebook</title>
    <desc>Created with Sketch.</desc>
    <g id="Scenarios" stroke="none" stroke-width="1" fill="none" fill-rule="evenodd">
        <g id="-g-Exyte_UI" transform="translate(-320.000000, -657.000000)" fill="#ffffff">
            <g id="facebook" transform="translate(321.000000, 658.000000)">
                <path d="M9.61044944,17.9928539 L9.61044944,11.0251011 L7.26566292,11.0251011 L7.26566292,8.30959551 L9.61044944,8.30959551 L9.61044944,6.30701124 C9.61044944,3.98298876 11.0298202,2.71752809 13.1030562,2.71752809 C14.0960225,2.71752809 14.9496404,2.79148315 15.1983371,2.82451685 L15.1983371,5.25323596 L13.760427,5.25391011 C12.6329663,5.25391011 12.4146742,5.78966292 12.4146742,6.57586517 L12.4146742,8.30959551 L15.1036854,8.30959551 L14.7535281,11.0251011 L12.4147416,11.0251011 L12.4147416,17.9929213 L12.4147416,17.9928539 L9.61044944,17.9928539 L0.993033708,17.9928539 C0.44447191,17.9928539 -5.86197757e-14,17.5482472 -5.86197757e-14,16.9998202 L-5.86197757e-14,0.993033708 C-5.86197757e-14,0.444539326 0.44447191,-1.77635684e-15 0.993033708,-1.77635684e-15 L16.9998202,-1.77635684e-15 C17.5481124,-1.77635684e-15 17.9927865,0.44447191 17.9927865,0.993033708 L17.9927865,16.9998876 C17.9927865,17.5482472 17.5481798,17.9929213 16.9998202,17.9929213 L16.9998202,17.9928539 L9.61044944,17.9928539 Z" id="Combined-Shape"></path>
            </g>
        </g>
    </g>
</svg>