<?xml version="1.0" encoding="UTF-8"?>
<svg width="20px" height="20px" viewBox="0 0 20 20" version="1.1" xmlns="http://www.w3.org/2000/svg" xmlns:xlink="http://www.w3.org/1999/xlink">
    <!-- Generator: Sketch 53.2 (72643) - https://sketchapp.com -->
    <title>slack</title>
    <desc>Created with Sketch.</desc>
    <g id="Scenarios" stroke="none" stroke-width="1" fill="none" fill-rule="evenodd">
        <g id="-g-Exyte_UI" transform="translate(-219.000000, -657.000000)" fill="#000000" fill-rule="nonzero">
            <g id="slack" transform="translate(220.000000, 658.000000)">
                <path d="M8.81638563,14.1235443 C9.02825082,14.883488 9.3948321,15.8132346 9.4673964,16.2938375 C9.7063322,17.8756954 7.48428562,18.6312804 6.61201015,17.3547265 C6.19542341,16.7443078 6.17681236,16.1799406 5.86080049,15.1832962 C4.74752131,15.4933381 4.14557604,15.9481673 3.30619888,15.8395768 C2.04083547,15.6760278 1.71222824,13.9141333 2.60518266,13.1128759 C3.16652201,12.6091526 4.08053136,12.6201443 4.8593756,12.2547649 C4.8593756,12.2547649 4.12621303,9.92982981 3.70699442,8.82080468 C2.87062511,9.07171877 1.64567964,9.5991311 1.10238737,9.47708527 C0.441225114,9.21802216 -0.0108918089,8.68094471 0.000199625001,7.96250414 C0.0236984256,6.49643811 1.67594609,6.38936374 2.75557499,5.9426836 C2.48862861,5.0898789 2.04647518,4.49973806 2.10400024,3.56942289 C2.17863243,2.37341169 3.5859286,1.68074477 4.60897238,2.4079029 C5.09229571,2.75129892 5.40567572,4.00321621 5.71059616,4.93258382 L9.06697684,3.82185308 C8.68291244,2.58339116 7.94768197,1.364828 8.86620309,0.438303083 C9.55424797,-0.254932376 10.76829,-0.0796336336 11.2709763,0.640133527 C11.7330568,1.30247851 11.7808063,2.10923175 12.021998,2.81156379 C12.9299917,2.49867922 14.0754172,1.91592935 14.9302096,2.2083466 C15.6323537,2.44864801 15.9703605,3.38370098 15.7791742,3.97327329 C15.4265042,5.09954402 14.1566291,5.24944814 13.0237989,5.63927464 L14.1259866,9.07323487 C15.0674426,8.76224543 15.5447502,8.36142722 16.430185,8.36654405 C17.3336669,8.37166088 17.899894,9.02794147 17.9831737,9.67910523 C18.1980468,11.3687956 16.3055474,11.5213529 15.1277875,11.951356 C15.489857,13.1318272 15.7977853,13.3855839 15.7793622,14.3246167 C15.7472159,15.9311112 13.7345906,16.302934 12.8737825,15.0822863 C12.5619065,14.6401544 12.4833265,13.9308104 12.1722023,13.011866 C12.1722023,13.011866 8.86902294,14.1705433 8.81638563,14.1235443 Z M11.1705895,10.0833347 L9.96820284,6.64937442 L6.71258501,7.81051539 L7.81439677,11.1938759 L11.1705895,10.0833347 Z" id="Shape"></path>
            </g>
        </g>
    </g>
</svg>