<?xml version="1.0" encoding="UTF-8"?>
<svg width="20px" height="20px" viewBox="0 0 20 20" version="1.1" xmlns="http://www.w3.org/2000/svg" xmlns:xlink="http://www.w3.org/1999/xlink">
    <!-- Generator: Sketch 53.2 (72643) - https://sketchapp.com -->
    <title>vk</title>
    <desc>Created with Sketch.</desc>
    <g id="Scenarios" stroke="none" stroke-width="1" fill="none" fill-rule="evenodd">
        <g id="-g-Exyte_UI" transform="translate(-119.000000, -657.000000)" fill="#000000">
            <g id="vk" transform="translate(120.000000, 658.000000)">
                <path d="M6.2457927,0.00667005304 L11.7635753,0.00667005304 C16.8035873,0.00667005304 17.9933299,1.20578071 17.9933299,6.2457927 L17.9933299,11.7635753 C17.9933299,16.8035873 16.7942193,17.9933299 11.7542073,17.9933299 L6.23642465,17.9933299 C1.19641266,17.9933299 0.00667005304,16.7942193 0.00667005304,11.7542073 L0.00667005304,6.23642465 C0.00667005304,1.20578071 1.20578071,0.00667005304 6.2457927,0.00667005304 Z M14.7332478,6.19895244 C14.8175603,5.91791088 14.7332478,5.72118179 14.3397897,5.72118179 L13.0282624,5.72118179 C12.6910125,5.72118179 12.5411237,5.89917478 12.4568112,6.09590387 C12.4568112,6.09590387 11.7916795,7.72594492 10.8455062,8.77516675 C10.5363605,9.08431247 10.4052078,9.17799299 10.2365829,9.17799299 C10.1522704,9.17799299 10.0304857,9.08431247 10.0304857,8.80327091 L10.0304857,6.19895244 C10.0304857,5.86170257 9.9368052,5.72118179 9.65576364,5.72118179 L7.5947922,5.72118179 C7.38869505,5.72118179 7.25754232,5.88043867 7.25754232,6.02095946 C7.25754232,6.33947322 7.72594492,6.41441764 7.78215324,7.29501453 L7.78215324,9.22483325 C7.78215324,9.64639559 7.70720882,9.72134001 7.53858388,9.72134001 C7.09828544,9.72134001 6.0115914,8.09129895 5.37456387,6.21768855 C5.24341114,5.87107062 5.12162646,5.72118179 4.78437659,5.72118179 L3.4728493,5.72118179 C3.09812722,5.72118179 3.02318281,5.89917478 3.02318281,6.09590387 C3.02318281,6.4425218 3.46348125,8.16624337 5.0935223,10.44268 C6.18021634,11.9977766 7.70720882,12.8409013 9.09368052,12.8409013 C9.92743715,12.8409013 10.0304857,12.6535403 10.0304857,12.3350265 L10.0304857,11.154652 C10.0304857,10.7799299 10.1054301,10.7049855 10.3771036,10.7049855 C10.5738327,10.7049855 10.9017146,10.798666 11.6792629,11.5481102 C12.5692278,12.4380751 12.7191167,12.8409013 13.2156234,12.8409013 L14.5271507,12.8409013 C14.9018728,12.8409013 15.0892338,12.6535403 14.9768172,12.2881863 C14.8550325,11.9228322 14.4334702,11.3888533 13.8713871,10.7518257 C13.5622413,10.3864717 13.1032068,10.0023816 12.9720541,9.80565247 C12.775325,9.55271507 12.8315333,9.44029845 12.9720541,9.22483325 C12.9720541,9.2154652 14.573991,6.96713271 14.7332478,6.19895244 Z" id="Combined-Shape"></path>
            </g>
        </g>
    </g>
</svg>