<?xml version="1.0" encoding="utf-8"?>
<!-- Generator: Adobe Illustrator 22.0.0, SVG Export Plug-In . SVG Version: 6.00 Build 0)  -->
<svg version="1.1" id="Logobrezgo" xmlns="http://www.w3.org/2000/svg" xmlns:xlink="http://www.w3.org/1999/xlink" x="0px" y="0px"
	 viewBox="0 0 1920 1080" style="enable-background:new 0 0 1920 1080;" xml:space="preserve" >
<g fill="#3BE8B0">
	<path d="M287.9,482.7c-12.9-9.9-25.8-15.9-34.2-19.1c13-9.5,36-34,36-88.6c0-41.5-21.2-65.9-39-79c-22-16.3-47.2-22.1-62.1-22.1
		H45.1c-10.5,0-19.1,8.6-19.1,19.1v342.3c0,0.6,0,2.9,0.1,6.3c0.1,8.5,0.2,24.4,0.2,34.8c0,3.9,1.5,7.5,4.2,10.2
		c2.7,2.7,6.4,4.1,10.2,4.1c15.5-0.2,41.4-0.1,68.8,0c15.5,0,31.2,0.1,45.2,0.1c16.6,0,30.9-0.1,39.6-0.3
		c26.8-0.6,57.4-2.9,80.6-21.6c10.1-8.1,19.2-17.6,26.9-28.2c16.2-22.3,25.4-47.1,26.6-71.9C330.1,534.1,316.1,504.3,287.9,482.7z
		 M74.6,493.1c11.6,0,23.3-0.2,34.6-0.4c30.2-0.4,61.5-0.8,91.9,1.1c38.5,2.4,77.9,25.2,78.9,70.5c0.1,3.8,0,7.5-0.4,11.1
		c-2.2,22.1-14,40.8-33.2,52.6c-24.2,15-51.3,15.1-79.9,15.1c-0.1,0-0.3,0-0.4,0H74.6V493.1z M232.5,418.3
		c-26.3,26.5-84.4,25.6-122.8,25.1c-5.5-0.1-10.7-0.2-15.5-0.2H74.3V319.3h48.3c4.2,0,8.6-0.1,13.1-0.1c49-0.6,109.9-1.3,111.3,58.5
		C247.4,394.8,242.6,408,232.5,418.3z"/>
	<path d="M515.8,377.6c-10.9-2-22.9-0.8-28.1-0.2c-0.7,0.1-1.2,0.1-1.6,0.2c-13.8,1.1-27.1,4.3-39.7,9.4c-1.8,0.7-3.5,1.4-5.2,2.2
		l0,0c-24,10.9-42.1,28.2-55.3,52.7c-23.4,43.5-23.4,87.3-23.4,133.7l0,116.2H415V554.6c0-43.2,4.6-91.1,38.6-119.7
		c10.7-9,23.3-14.2,35.5-14.6c18.8-0.6,22.9-8.1,27.7-16.8l6-10.7c1.6-3,1.8-6.5,0.3-9.6C521.7,380.3,519,378.2,515.8,377.6z"/>
	<path d="M880.4,499.4c-7.3-37.2-27.4-71-56.5-95.3c-29.6-24.7-67.1-38.3-105.6-38.3c-31.6,0-62.3,9-88.9,25.9
		c-25.8,16.5-46.5,39.8-59.8,67.3c-13.7,28.2-19,60-15.3,91.7c4.2,36.1,20.8,70.4,46.8,96.6c26,26.2,60.2,43.1,96.3,47.5
		c7,0.9,14,1.3,21,1.3c53.5,0,103.9-26.1,134.8-69.8c4.2-5.8,5.6-13.3,3.8-20.4c-1.8-7.3-6.6-13.4-13.3-16.9
		c-3.6-1.8-7.5-2.8-11.5-2.8c-8.3,0-16.2,4.1-21.2,11c-21.4,29.9-56,47.7-92.7,47.7c-58.7,0-106.8-43.7-113.2-101.1h114h121.6h18.8
		c6.4,0,12.6-2.7,17-7.4c4.4-4.7,6.6-11,6.2-17.4C882.2,511.3,881.4,504.8,880.4,499.4z M611.1,492.4c1.3-3.6,2.7-7.1,4.4-10.5
		c18.9-39.5,59.3-65,102.9-65c48.5,0,91.1,30.5,107.2,75.5h-173H611.1z"/>
	<path d="M1123,651.5L980.3,651L1132,407.5c3.8-6.1,3.9-13.4,0.5-19.6c-3.5-6.2-9.8-9.9-16.9-9.9h-181c-10.5,0-19.1,8.6-19.1,19.1
		v1.5c0,10.4,8.5,18.9,18.9,18.9h135.1L909.7,667.7c-3,4.6-3.2,10.3-0.5,15.1c2.6,4.8,7.5,7.7,12.9,7.7l200.8,0.6c0,0,0.1,0,0.1,0
		c5.3,0,10.2-2,14-5.8c3.7-3.7,5.8-8.7,5.8-14C1142.8,660.4,1133.9,651.5,1123,651.5z"/>
	<path d="M1465.4,406.3c-34.9-31.3-80.1-45.7-127.1-40.5c-74.7,8.3-135,68.5-143.2,143.2c-5.2,47,9.2,92.2,40.4,127.1
		c30.9,34.5,75.1,54.2,121.3,54.2c43.6,0,85.3-17.6,115.9-48.5c1,17.7,0.2,56.9-22,85.8c-15.3,19.9-38.1,31.6-67.9,34.9
		c-85.3,9.4-121.3-30.8-132.8-48.6c-4.2-6.4-11.4-10.3-19.2-10.3h-1.2c-7.7,0-14.7,4.2-18.4,11c-3.6,6.7-3.3,14.5,0.8,20.8
		c36.9,56.6,88.4,70.6,139.4,70.6c14.3,0,28.7-1.1,42.6-2.7c35.1-4,61.5-15.7,80.8-35.8c16.9-17.5,25.6-38.6,32.5-58.7
		c12.2-35.6,12.4-175.5,12.4-181.4C1519.6,481.3,1499.9,437.1,1465.4,406.3z M1473.5,542.9c-2.9,22.9-12.6,44.3-28.1,62l0,0
		c-19,21.8-45.1,35.8-73.3,39.3c-36.7,4.6-72.6-7.6-98.6-33.5c-25.9-25.9-38.1-61.8-33.5-98.5c6.6-52.2,49.2-94.8,101.4-101.4
		c5.1-0.6,10.2-1,15.3-1c31.2,0,60.9,12.1,83.2,34.4C1465.9,470.2,1478.2,506.1,1473.5,542.9z"/>
	<path d="M1894,514c-0.1-0.6-0.1-1.2-0.1-1.8c-0.1-1-0.1-1.9-0.2-2.9l-0.4-3.9h-0.5c-4.8-39-23.4-74.9-52.7-101.5
		c-30.4-27.7-69.8-42.9-111-42.9c-87.9,0-160.2,68.7-164.7,156.4c-0.1,2.8-0.2,5.7-0.2,8.5c0,3.6,0.1,7.5,0.4,11.7l0.2,2.6
		c0.4,4.2,0.8,7.9,1.4,11.4c0,0.2,0.1,0.3,0.1,0.5c0.5,3.3,1.2,6.7,2.2,11.1l0,0.2c0.1,0.2,0.1,0.4,0.1,0.6c0.1,0.3,0.1,0.6,0.2,0.8
		c4.8,20,13.3,38.7,25.1,55.6c8.1,11.6,17.7,22.1,28.5,31.3c29.7,25.2,67.6,39.1,106.6,39.1c39,0,76.8-13.9,106.6-39.1
		c3.6-3.1,7.3-6.6,11.3-10.7c1-1,2-2.1,3.1-3.2l0.4,0.4l3.1-3.5c0.4-0.5,0.8-1,1.3-1.5l0.5-0.4v-0.2c20.5-24.1,33.5-53.4,37.7-84.7
		l0.1-2.2l0.2-1.6c0.3-2,0.5-4.1,0.7-6.3l0-23.4L1894,514z M1846.6,525.9c0,23.6-7,46.4-20.2,65.9l0,0
		c-8.2,12.1-18.5,22.5-30.6,30.8c-19.7,13.6-42.8,20.8-66.7,20.8c-23.9,0-47-7.2-66.7-20.8c-12.1-8.4-22.4-18.7-30.6-30.8
		c-13.2-19.5-20.2-42.3-20.2-65.9c0-64.8,52.7-117.5,117.5-117.5S1846.6,461.1,1846.6,525.9z"/>
</g>
</svg>
