<?xml version="1.0" encoding="UTF-8"?>
<svg width="800px" height="592px" viewBox="0 0 800 592" version="1.1" xmlns="http://www.w3.org/2000/svg" xmlns:xlink="http://www.w3.org/1999/xlink">
    <!-- Generator: Sketch 53.2 (72643) - https://sketchapp.com -->
    <title>Main</title>
    <desc>Created with Sketch.</desc>
    <defs>
        <path d="M3.247,14.051 L22.382,25.1 L41.383,14.057 L22.248,3.009 L3.247,14.051 Z M21.884,27.121 L0.752,14.92 L0.75,13.189 L21.744,0.989 L22.747,0.987 L43.878,13.188 L43.881,14.918 L22.886,27.119 L21.884,27.121 L21.884,27.121 Z" id="path-1"></path>
        <path d="M2.253,24.76 L21.395,35.811 L21.458,13.834 L2.316,2.783 L2.253,24.76 Z M21.89,38.406 L0.752,26.202 L0.252,25.333 L0.321,1.051 L1.821,0.188 L22.959,12.392 L23.459,13.261 L23.39,37.543 L21.89,38.406 L21.89,38.406 Z" id="path-3"></path>
    </defs>
    <g id="Scenarios" stroke="none" stroke-width="1" fill="none" fill-rule="evenodd">
        <g id="-g-Exyte_Illustrations" transform="translate(-300.000000, -4302.000000)">
            <g id="Main" transform="translate(442.000000, 4366.000000)">
                <path d="M251.892,250.39325 C251.892,253.84625 249.094,256.64325 245.642,256.64325 C242.19,256.64325 239.392,253.84625 239.392,250.39325 C239.392,246.94225 242.19,244.14325 245.642,244.14325 C249.094,244.14325 251.892,246.94225 251.892,250.39325" id="Fill-1" fill="#1B1A19"></path>
                <polyline id="Fill-2" fill="#1B1A19" points="447.731 402.31025 429.135 402.31025 429.135 400.31025 445.731 400.31025 445.731 343.63425 356.458 343.63425 356.458 400.31025 392.883 400.31025 392.883 402.31025 354.458 402.31025 354.458 341.63425 447.731 341.63425 447.731 402.31025"></polyline>
                <path d="M362.788,352.09125 C361.546,352.09125 360.539,351.08425 360.539,349.84225 C360.539,348.59925 361.546,347.59325 362.788,347.59325 C364.03,347.59325 365.037,348.59925 365.037,349.84225 C365.037,351.08425 364.03,352.09125 362.788,352.09125 Z M355.458,357.17225 L370.118,357.17225 L370.118,342.51225 L355.458,342.51225 L355.458,357.17225 Z" id="Fill-3" fill="#1B1A19"></path>
                <path d="M346.132,49.13725 C343.854,49.13725 341.575,48.62325 339.796,47.59625 C337.912,46.50925 336.869,45.00425 336.86,43.35825 L336.86,5.78325 L338.86,5.78325 L338.86,43.35225 C338.865,44.23925 339.57,45.15625 340.796,45.86325 C343.695,47.53825 348.575,47.53825 351.449,45.86525 C352.679,45.15025 353.353,44.26125 353.348,43.35825 L353.348,5.78325 L355.348046,5.78325 L355.348,43.35225 C355.356,44.99625 354.329,46.50425 352.455,47.59425 C350.685,48.62225 348.409,49.13725 346.132,49.13725" id="Fill-4" fill="#1B1A19"></path>
                <path d="M346.074,2.01825 C344.133,2.01825 342.195,2.43525 340.758,3.27125 C339.533,3.98325 338.859,4.87025 338.86,5.76925 C338.862,6.67825 339.549,7.57425 340.796,8.29425 C343.694,9.96825 348.574,9.96825 351.449,8.29625 C352.675,7.58425 353.349,6.69625 353.348,5.79825 C353.347,4.89025 352.659,3.99325 351.414,3.27425 C349.964,2.43625 348.017,2.01825 346.074,2.01825 Z M346.132,11.56725 C343.854,11.56725 341.575,11.05425 339.796,10.02625 C337.905,8.93425 336.863,7.42425 336.86,5.77225 C336.858,4.13025 337.885,2.62825 339.752,1.54325 C343.291,-0.51475 348.852,-0.51375 352.414,1.54225 C354.304,2.63325 355.346,4.14325 355.348,5.79525 C355.35,7.43725 354.322,8.93925 352.454,10.02425 C350.686,11.05325 348.409,11.56725 346.132,11.56725 L346.132,11.56725 Z" id="Fill-5" fill="#1B1A19"></path>
                <polyline id="Fill-6" fill="#1B1A19" points="354.348 5.78325 354.348 5.78425 354.348 5.78325"></polyline>
                <path d="M351.951,9.16025 C350.464,10.02525 348.542,10.48325 346.587,10.54625 L346.587,48.11525 C348.542,48.05325 350.464,47.59425 351.951,46.72925 C353.557,45.79725 354.354,44.57425 354.348,43.35225 L354.348034,5.78425 C354.354,7.00625 353.557,8.22725 351.951,9.16025" id="Fill-7" fill="#1B1A19"></path>
                <polyline id="Fill-8" fill="#1B1A19" points="322.645 381.38825 167.645 381.38825 167.645 262.64325 169.645 262.64325 169.645 379.38825 320.645 379.38825 320.645 318.97725 322.645 318.97725 322.645 381.38825"></polyline>
                <path d="M169.645,136.80725 L320.645,136.80725 L320.645,116.64325 L169.645,116.64325 L169.645,136.80725 Z M169.645,221.64325 L167.645,221.64325 L167.645,114.64325 L322.645,114.64325 L322.645,138.80725 L169.645,138.80725 L169.645,221.64325 L169.645,221.64325 Z" id="Fill-9" fill="#1B1A19"></path>
                <polygon id="Fill-10" fill="#1B1A19" points="168.645 350.38825 321.645 350.38825 321.645 348.38825 168.645 348.38825"></polygon>
                <path d="M403.621,408.81425 L403.621,393.80725 L416.619,401.31025 L403.621,408.81425 Z M389.016,415.97725 L431.225,415.97725 L431.225,386.64325 L389.016,386.64325 L389.016,415.97725 Z" id="Fill-11" fill="#1B1A19"></path>
                <polyline id="Fill-12" fill="#1B1A19" points="283.895 280.32525 244.642 280.32525 244.642 252.82525 246.642 252.82525 246.642 278.32525 283.895 278.32525 283.895 280.32525"></polyline>
                <polyline id="Fill-13" fill="#1B1A19" points="398.715 280.64325 360.597 280.64325 360.597 278.64325 396.715 278.64325 396.715 113.64325 398.715 113.64325 398.715 280.64325"></polyline>
                <polyline id="Fill-14" fill="#1B1A19" points="398.715 59.31025 396.715 59.31025 396.715 34.64325 354.348 34.64325 354.348 32.64325 398.715 32.64325 398.715 59.31025"></polyline>
                <polyline id="Fill-15" fill="#1B1A19" points="245.875 115.64325 243.875 115.64325 243.875 32.64325 337.86 32.64325 337.86 34.64325 245.875 34.64325 245.875 115.64325"></polyline>
                <polyline id="Fill-16" fill="#1B1A19" points="196.145 199.14325 194.145 199.14325 194.145 160.14325 219.645 160.14325 219.645 162.14325 196.145 162.14325 196.145 199.14325"></polyline>
                <polyline id="Fill-17" fill="#1B1A19" points="77.145 243.14325 20.648 243.14325 20.648 195.14325 22.648 195.14325 22.648 241.14325 77.145 241.14325 77.145 243.14325"></polyline>
                <polygon id="Fill-18" fill="#1B1A19" points="245.145 200.14325 334.587 200.14325 334.587 198.14325 245.145 198.14325"></polygon>
                <polygon id="Fill-19" fill="#1B1A19" points="311.895 180.72525 360.597 180.72525 360.597 178.72525 311.895 178.72525"></polygon>
                <polygon id="Fill-20" fill="#1B1A19" points="245.145 222.64325 334.587 222.64325 334.587 220.64325 245.145 220.64325"></polygon>
                <path d="M3.247,150.00425 L22.382,161.05325 L41.383,150.01025 L22.248,138.96225 L3.247,150.00425 Z M21.884,163.07425 L0.752,150.87325 L0.75,149.14225 L21.744,136.94225 L22.747,136.94025 L43.878,149.14125 L43.881,150.87125 L22.886,163.07225 L21.884,163.07425 L21.884,163.07425 Z" id="Fill-21" fill="#1B1A19"></path>
                <g id="Group-24" transform="translate(0.000000, 135.953250)">
                    <mask id="mask-2" fill="white">
                        <use xlink:href="#path-1"></use>
                    </mask>
                    <g id="Clip-23"></g>
                    <path d="M3.247,14.051 L22.382,25.1 L41.383,14.057 L22.248,3.009 L3.247,14.051 Z M21.884,27.121 L0.752,14.92 L0.75,13.189 L21.744,0.989 L22.747,0.987 L43.878,13.188 L43.881,14.918 L22.886,27.119 L21.884,27.121 L21.884,27.121 Z" id="Fill-22" fill="#1B1A19" mask="url(#mask-2)"></path>
                </g>
                <polyline id="Fill-25" fill="#1B1A19" points="22.552 186.95725 22.315 162.21125 43.793 149.82325 44.03 174.56825 22.552 186.95725"></polyline>
                <path d="M2.253,173.71325 L21.395,184.76425 L21.458,162.78725 L2.316,151.73625 L2.253,173.71325 Z M21.89,187.35925 L0.752,175.15525 L0.252,174.28625 L0.321,150.00425 L1.821,149.14125 L22.959,161.34525 L23.459,162.21425 L23.39,186.49625 L21.89,187.35925 L21.89,187.35925 Z" id="Fill-26" fill="#1B1A19"></path>
                <g id="Group-29" transform="translate(0.000000, 148.953250)">
                    <mask id="mask-4" fill="white">
                        <use xlink:href="#path-3"></use>
                    </mask>
                    <g id="Clip-28"></g>
                    <path d="M2.253,24.76 L21.395,35.811 L21.458,13.834 L2.316,2.783 L2.253,24.76 Z M21.89,38.406 L0.752,26.202 L0.252,25.333 L0.321,1.051 L1.821,0.188 L22.959,12.392 L23.459,13.261 L23.39,37.543 L21.89,38.406 L21.89,38.406 Z" id="Fill-27" fill="#1B1A19" mask="url(#mask-4)"></path>
                </g>
                <path d="M254.645,364.56525 C254.645,369.51225 250.635,373.52125 245.689,373.52125 C240.743,373.52125 236.734,369.51225 236.734,364.56525 C236.734,359.62025 240.743,355.61025 245.689,355.61025 C250.635,355.61025 254.645,359.62025 254.645,364.56525" id="Fill-30" fill="#1B1A19"></path>
                <polyline id="Fill-31" fill="#1B1A19" points="322.645 259.86325 322.645 284.59525 333.017 279.22325 322.645 259.86325"></polyline>
                <polyline id="Fill-32" fill="#1B1A19" points="320.645 284.59525 320.645 259.86325 310.272 279.22325 320.645 284.59525"></polyline>
                <polyline id="Fill-33" fill="#1B1A19" points="320.645 299.42425 320.645 286.84725 311.317 282.01625 320.645 299.42425"></polyline>
                <polyline id="Fill-34" fill="#1B1A19" points="322.645 286.84725 322.645 299.42425 331.972 282.01625 322.645 286.84725"></polyline>
                <path d="M321.645,305.52425 L307.778,279.64325 L321.645,253.76325 L335.511,279.64325 L321.645,305.52425 Z M321.645,241.07225 C300.132,241.07225 282.691,258.51225 282.691,280.02425 C282.691,301.53725 300.132,318.97725 321.645,318.97725 C343.157,318.97725 360.597,301.53725 360.597,280.02425 C360.597,258.51225 343.157,241.07225 321.645,241.07225 L321.645,241.07225 Z" id="Fill-35" fill="#1B1A19"></path>
                <path d="M77.626,160.20725 L137.156,160.20725 L137.156,73.92325 L77.626,73.92325 L77.626,160.20725 Z M75.626,162.20725 L139.156,162.20725 L139.156,71.92325 L75.626,71.92325 L75.626,162.20725 Z" id="Fill-36" fill="#1B1A19"></path>
                <polyline id="Fill-37" fill="#1B1A19" points="515.94 318.90325 410.909 318.90325 410.909 258.55625 449.511 258.55625 449.511 260.55625 412.909 260.55625 412.909 316.90325 513.94 316.90325 513.94 260.55625 474.41 260.55625 474.41 258.55625 515.94 258.55625 515.94 318.90325"></polyline>
                <polygon id="Fill-38" fill="#1B1A19" points="479.068 282.83325 503.403 282.83325 503.403 280.83325 479.068 280.83325"></polygon>
                <polygon id="Fill-39" fill="#1B1A19" points="444.246 282.83325 474.41 282.83325 474.41 280.83325 444.246 280.83325"></polygon>
                <polygon id="Fill-40" fill="#1B1A19" points="422.104 282.83325 440.512 282.83325 440.512 280.83325 422.104 280.83325"></polygon>
                <polygon id="Fill-41" fill="#1B1A19" points="422.104 294.85625 503.403 294.85625 503.403 292.85625 422.104 292.85625"></polygon>
                <polygon id="Fill-42" fill="#1B1A19" points="422.104 306.88025 503.403 306.88025 503.403 304.88025 422.104 304.88025"></polygon>
                <polygon id="Fill-43" fill="#1B1A19" points="433.03 305.88025 435.03 305.88025 435.03 269.80825 433.03 269.80825"></polygon>
                <polygon id="Fill-44" fill="#1B1A19" points="444.593 305.88025 446.593 305.88025 446.593 271.13725 444.593 271.13725"></polygon>
                <polygon id="Fill-45" fill="#1B1A19" points="456.154 305.88025 458.154 305.88025 458.154 269.80825 456.154 269.80825"></polygon>
                <polygon id="Fill-46" fill="#1B1A19" points="467.717 305.88025 469.717 305.88025 469.717 269.80825 467.717 269.80825"></polygon>
                <polygon id="Fill-47" fill="#1B1A19" points="479.279 305.88025 481.279 305.88025 481.279 278.20025 479.279 278.20025"></polygon>
                <polygon id="Fill-48" fill="#1B1A19" points="490.841 305.88025 492.841 305.88025 492.841 269.80825 490.841 269.80825"></polygon>
                <polyline id="Fill-49" fill="#1B1A19" points="504.403 306.88025 421.104 306.88025 421.104 268.80825 440.475 268.80825 440.475 270.80825 423.104 270.80825 423.104 304.88025 502.403 304.88025 502.403 270.80825 482.87 270.80825 482.87 268.80825 504.403 268.80825 504.403 306.88025"></polyline>
                <polygon id="Fill-50" fill="#1B1A19" points="447.65 270.80825 475.483 270.80825 475.483 268.80825 447.65 268.80825"></polygon>
                <polygon id="Fill-51" fill="#1B1A19" points="513.965 317.90325 515.965 317.90325 515.965 269.80825 513.965 269.80825"></polygon>
                <polygon id="Fill-52" fill="#1B1A19" points="480.097 305.64925 491.659 305.64925 491.659 294.08725 480.097 294.08725"></polygon>
                <path d="M106.894,238.54625 C104.91,238.54625 103.296,240.16025 103.296,242.14325 C103.296,244.12825 104.91,245.74225 106.894,245.74225 C108.878,245.74225 110.492,244.12825 110.492,242.14325 C110.492,240.16025 108.878,238.54625 106.894,238.54625" id="Fill-53" fill="#1B1A19"></path>
                <path d="M151.587,238.54625 C149.603,238.54625 147.989,240.16025 147.989,242.14325 C147.989,244.12825 149.603,245.74225 151.587,245.74225 C153.571,245.74225 155.186,244.12825 155.186,242.14325 C155.186,240.16025 153.571,238.54625 151.587,238.54625" id="Fill-54" fill="#1B1A19"></path>
                <path d="M180.382,248.20025 L182.382,248.20025 L182.382,236.08825 L180.382,236.08825 L180.382,248.20025 Z M165.485,248.20025 L167.485,248.20025 L167.485,236.08825 L165.485,236.08825 L165.485,248.20025 Z M151.587,247.74225 C148.5,247.74225 145.989,245.23025 145.989,242.14325 C145.989,239.05725 148.5,236.54625 151.587,236.54625 C154.674,236.54625 157.186,239.05725 157.186,242.14325 C157.186,245.23025 154.674,247.74225 151.587,247.74225 Z M135.689,248.20025 L137.689,248.20025 L137.689,236.08825 L135.689,236.08825 L135.689,248.20025 Z M120.792,248.20025 L122.792,248.20025 L122.792,236.08825 L120.792,236.08825 L120.792,248.20025 Z M106.894,247.74225 C103.807,247.74225 101.296,245.23025 101.296,242.14325 C101.296,239.05725 103.807,236.54625 106.894,236.54625 C109.981,236.54625 112.492,239.05725 112.492,242.14325 C112.492,245.23025 109.981,247.74225 106.894,247.74225 Z M90.997,248.20025 L92.997,248.20025 L92.997,236.08825 L90.997,236.08825 L90.997,248.20025 Z M77.145,262.64325 L195.145,262.64325 L195.145,221.64325 L77.145,221.64325 L77.145,262.64325 Z" id="Fill-55" fill="#1B1A19"></path>
                <path d="M123.142,453.63625 L132.775,460.08925 C132.681,458.94625 132.02,456.97425 129.315,454.22825 C126.869,451.74425 127.643,446.82225 128.132,444.67625 L124.22,443.76925 L123.142,453.63625 Z M133.804,463.18525 L121.021,454.62225 L122.477,441.31225 L130.621,443.19925 L130.313,444.22225 C129.789,445.96225 128.844,450.89925 130.74,452.82425 C136.387,458.55725 134.574,461.93425 134.349,462.30125 L133.804,463.18525 L133.804,463.18525 Z" id="Fill-56" fill="#1B1A19"></path>
                <path d="M160.397,437.34725 L165.189,444.87725 L176.382,441.59625 C175.457,441.03525 173.649,440.47125 170.236,440.87825 C167.186,441.23725 165.188,436.74825 164.313,434.20225 L160.397,437.34725 Z M164.31,447.21925 L157.748,436.90925 L165.392,430.77025 L165.796,432.23825 C166.564,435.03225 168.43,439.11525 170,438.89125 C177.597,437.98625 179.023,441.37825 179.16,441.76825 L179.509,442.76325 L164.31,447.21925 L164.31,447.21925 Z" id="Fill-57" fill="#1B1A19"></path>
                <polyline id="Fill-58" fill="#1B1A19" points="139.976 378.15025 138.251 377.13725 154.897 348.80525 129.825 348.80525 117.512 368.70125 115.812 367.64825 128.711 346.80525 158.392 346.80525 139.976 378.15025"></polyline>
                <path d="M73.529,371.70425 L71.552,371.39925 C71.853,369.45225 79.136,323.63425 98.171,317.51525 C103.557,315.78625 107.397,317.48225 107.559,317.55725 L106.73,319.37725 C106.703,319.36625 103.393,317.93725 98.784,319.41925 C80.912,325.16325 73.601,371.23925 73.529,371.70425" id="Fill-59" fill="#1B1A19"></path>
                <path d="M198.637,304.17425 C198.637,305.51925 197.546,306.61125 196.2,306.61125 C194.854,306.61125 193.764,305.51925 193.764,304.17425 C193.764,302.82825 194.854,301.73725 196.2,301.73725 C197.546,301.73725 198.637,302.82825 198.637,304.17425" id="Fill-60" fill="#1B1A19"></path>
                <path d="M209.832,304.17425 C209.832,305.51925 208.74,306.61125 207.395,306.61125 C206.048,306.61125 204.958,305.51925 204.958,304.17425 C204.958,302.82825 206.048,301.73725 207.395,301.73725 C208.74,301.73725 209.832,302.82825 209.832,304.17425" id="Fill-61" fill="#1B1A19"></path>
                <path d="M221.025,304.17425 C221.025,305.51925 219.934,306.61125 218.588,306.61125 C217.243,306.61125 216.151,305.51925 216.151,304.17425 C216.151,302.82825 217.243,301.73725 218.588,301.73725 C219.934,301.73725 221.025,302.82825 221.025,304.17425" id="Fill-62" fill="#1B1A19"></path>
                <path d="M198.637,315.64125 C198.637,316.98625 197.546,318.07825 196.2,318.07825 C194.854,318.07825 193.764,316.98625 193.764,315.64125 C193.764,314.29525 194.854,313.20425 196.2,313.20425 C197.546,313.20425 198.637,314.29525 198.637,315.64125" id="Fill-63" fill="#1B1A19"></path>
                <path d="M209.832,315.64125 C209.832,316.98625 208.74,318.07825 207.395,318.07825 C206.048,318.07825 204.958,316.98625 204.958,315.64125 C204.958,314.29525 206.048,313.20425 207.395,313.20425 C208.74,313.20425 209.832,314.29525 209.832,315.64125" id="Fill-64" fill="#1B1A19"></path>
                <path d="M221.025,315.64125 C221.025,316.98625 219.934,318.07825 218.588,318.07825 C217.243,318.07825 216.151,316.98625 216.151,315.64125 C216.151,314.29525 217.243,313.20425 218.588,313.20425 C219.934,313.20425 221.025,314.29525 221.025,315.64125" id="Fill-65" fill="#1B1A19"></path>
                <path d="M198.637,327.10725 C198.637,328.45325 197.546,329.54525 196.2,329.54525 C194.854,329.54525 193.764,328.45325 193.764,327.10725 C193.764,325.76225 194.854,324.67125 196.2,324.67125 C197.546,324.67125 198.637,325.76225 198.637,327.10725" id="Fill-66" fill="#1B1A19"></path>
                <path d="M209.832,327.10725 C209.832,328.45325 208.74,329.54525 207.395,329.54525 C206.048,329.54525 204.958,328.45325 204.958,327.10725 C204.958,325.76225 206.048,324.67125 207.395,324.67125 C208.74,324.67125 209.832,325.76225 209.832,327.10725" id="Fill-67" fill="#1B1A19"></path>
                <path d="M221.025,327.10725 C221.025,328.45325 219.934,329.54525 218.588,329.54525 C217.243,329.54525 216.151,328.45325 216.151,327.10725 C216.151,325.76225 217.243,324.67125 218.588,324.67125 C219.934,324.67125 221.025,325.76225 221.025,327.10725" id="Fill-68" fill="#1B1A19"></path>
                <polyline id="Fill-69" fill="#1B1A19" points="290.709 182.69825 280.025 174.21825 290.709 165.73725 291.953 167.30425 283.242 174.21825 291.953 181.13225 290.709 182.69825"></polyline>
                <path d="M404.251,95.59925 L403.008,94.03325 L413.578,85.64325 L403.008,77.25425 L404.251,75.68725 L416.795,85.64325 L404.251,95.59925 Z M391.539,94.03325 L390.296,95.59925 L377.753,85.64325 L390.296,75.68725 L391.539,77.25425 L380.97,85.64325 L391.539,94.03325 Z M372.402,104.88425 L422.145,104.88425 L422.145,66.40425 L372.402,66.40425 L372.402,104.88425 Z" id="Fill-70" fill="#1B1A19"></path>
                <polyline id="Fill-71" fill="#1B1A19" points="300.533 181.26325 298.744 180.37025 305.875 166.07425 307.664 166.96725 300.533 181.26325"></polyline>
                <polyline id="Fill-72" fill="#1B1A19" points="186.085 133.38325 175.729 123.02625 177.143 121.61225 187.5 131.96925 186.085 133.38325"></polyline>
                <polyline id="Fill-73" fill="#1B1A19" points="177.135 133.39125 175.721 131.97625 186.078 121.62025 187.492 123.03425 177.135 133.39125"></polyline>
                <path d="M46.302,356.62225 C44.686,356.62225 43.072,356.25725 41.816,355.52625 C40.451,354.73425 39.672,353.57425 39.68,352.34525 L39.679939,343.00925 L41.68,343.00925 L41.68,352.35125 C41.676,352.84925 42.092,353.37425 42.821,353.79725 C44.704,354.89225 47.897,354.89225 49.795,353.79625 C50.534,353.37025 50.959,352.84225 50.962,352.34525 L50.962,343.00925 L52.962,343.00925 L52.962,352.35125 C52.954,353.60025 52.185,354.72625 50.795,355.52825 C49.533,356.25725 47.917,356.62225 46.302,356.62225" id="Fill-74" fill="#1B1A19"></path>
                <path d="M46.341,340.74225 C45.069,340.74225 43.795,341.01625 42.845,341.56525 C42.105,341.99225 41.68,342.52225 41.68,343.01825 C41.679,343.50925 42.095,344.03225 42.821,344.45525 C44.704,345.55025 47.898,345.54825 49.795,344.45325 C50.536,344.02525 50.961,343.49525 50.962,342.99825 C50.962,342.50825 50.547,341.98425 49.821,341.56225 C48.88,341.01625 47.611,340.74225 46.341,340.74225 Z M46.302,347.27825 C44.686,347.27825 43.072,346.91325 41.816,346.18325 C40.437,345.38225 39.678,344.25625 39.68,343.01625 C39.682,341.76825 40.45,340.63925 41.845,339.83325 C44.37,338.37425 48.316,338.37325 50.826,339.83425 C52.205,340.63525 52.964,341.76025 52.962,343.00125 C52.96,344.24925 52.19,345.38025 50.795,346.18525 C49.533,346.91425 47.917,347.27825 46.302,347.27825 L46.302,347.27825 Z" id="Fill-75" fill="#1B1A19"></path>
                <path d="M40.679,343.00925 L40.679,343.00925" id="Fill-76" fill="#1B1A19"></path>
                <path d="M42.319,345.31925 C43.337,345.91125 44.652,346.22425 45.99,346.26725 L45.99,355.61025 C44.652,355.56725 43.337,355.25425 42.319,354.66225 C41.22,354.02425 40.674,353.18725 40.679,352.35125 L40.678966,343.00925 C40.674,343.84525 41.22,344.68125 42.319,345.31925" id="Fill-77" fill="#1B1A19"></path>
                <path d="M486.377,234.59325 C485.301,212.47125 483.805,197.97825 482.271,194.83125 C480.604,191.40825 480.111,190.69525 474.44,188.52625 C472.502,187.78525 470.795,187.25525 469.288,186.78625 C465.968,185.75425 463.965,185.13125 463.621,183.41025 C463.279,181.70625 461.991,174.68225 461.937,174.38525 L461.902,174.19825 L461.938,174.01225 C462.725,170.00925 462.934,164.03925 460.94,163.29825 C458.336,162.32825 454.636,161.88825 452.877,161.72425 C452.812,162.85025 452.735,163.98025 452.661,165.09125 C452.341,169.83925 452.011,174.74825 452.841,176.52725 C453.038,176.95025 453.202,177.08125 453.244,177.09325 C453.421,177.15025 453.989,176.76925 454.236,176.61225 C454.747,176.28625 455.274,175.95025 455.883,175.95025 C456.272,175.95025 456.834,176.11525 457.297,176.90125 C458.114,178.29125 458.654,182.05325 457.728,183.72025 C457.208,184.65425 455.527,185.43625 452.077,186.97725 C448.844,188.42225 444.818,190.22025 442.671,192.14725 C438.733,195.68225 438.447,210.81925 438.669,216.35325 L438.794,226.81825 L436.794,226.84225 L436.67,216.40525 C436.585,214.30125 435.99,195.45925 441.335,190.65925 C443.716,188.52125 447.9,186.65225 451.262,185.15125 C453.209,184.28125 455.632,183.19925 455.994,182.72425 C456.478,181.85125 456.118,179.03725 455.667,178.07425 C455.554,178.14425 455.418,178.23025 455.312,178.29925 C454.639,178.72625 453.715,179.31125 452.685,179.01325 C452,178.81325 451.443,178.26225 451.028,177.37325 C449.98,175.12725 450.298,170.41425 450.665,164.95725 C450.762,163.51825 450.861,162.04725 450.936,160.59225 L450.987,159.58425 L451.995,159.64525 C452.232,159.66025 457.852,160.01525 461.638,161.42325 C465.782,162.96525 464.365,171.95125 463.938,174.20925 C464.148,175.35525 465.274,181.48125 465.582,183.01825 C465.693,183.57425 467.918,184.26625 469.882,184.87625 C471.341,185.33025 473.157,185.89425 475.155,186.65925 C481.215,188.97525 482.124,189.96125 484.07,193.95625 C486.212,198.35325 487.594,218.42925 488.375,234.49525 L486.377,234.59325" id="Fill-78" fill="#1B1A19"></path>
                <path d="M448.498,156.15225 C446.373,157.96525 447.561,160.64325 449.017,161.84525 C451.658,164.02425 455.27,164.58125 457.448,164.75325 C459.627,164.92525 460.277,165.16125 460.123,166.46525 C459.984,167.63025 459.167,169.19225 461.289,169.14925 C463.441,169.10525 460.151,175.32225 462.892,175.84125 C464.4,176.12625 464.985,173.66225 465.373,172.96525 C466.349,171.20825 467.128,163.53925 465.061,160.96525 C462.992,158.39025 456.96,158.52725 455.202,157.24425 C454.026,156.38525 450.733,154.24525 448.498,156.15225" id="Fill-79" fill="#1B1A19"></path>
                <path d="M474.819,260.48125 L474.011,258.65325 C491.694,250.83025 496.514,248.52725 497.443,247.97425 L497.967,247.66325 C501.111,245.80225 505.025,243.48425 505.431,239.40125 C505.622,237.46625 504.542,235.15125 502.54,233.21025 C500.739,231.46525 498.609,230.47325 497.125,230.65825 C494.666,230.97825 475.837,242.40625 462.147,251.53725 L461.038,249.87325 C470.102,243.82725 493.285,229.14125 496.867,228.67625 C498.977,228.39925 501.678,229.58925 503.932,231.77425 C506.368,234.13725 507.672,237.06125 507.421,239.59925 C506.916,244.68925 502.332,247.40325 498.985,249.38525 L498.467,249.69225 C497.046,250.53825 489.09,254.16925 474.819,260.48125" id="Fill-80" fill="#1B1A19"></path>
                <path d="M452.448,270.31025 L444.007,264.28125 L449.434,259.06325 L450.82,260.50525 L447.13,264.05325 L452.688,268.02325 C454.048,267.43025 457.954,265.72325 462.933,263.53525 L463.737,265.36725 C457.515,268.09925 452.968,270.08425 452.968,270.08425 L452.448,270.31025" id="Fill-81" fill="#1B1A19"></path>
                <path d="M425.113,231.57825 C423.732,231.57825 422.714,231.94925 422.126,232.71225 C419.918,235.57425 417.593,241.72425 420.751,246.04325 C422.813,248.86425 454.302,260.48325 474.192,267.33525 L477.271,262.57625 C472.264,259.16025 445.536,240.93925 440.481,237.81725 C433.895,233.74825 428.448,231.57825 425.113,231.57825 Z M475.022,269.73525 L474.282,269.48025 C468.97,267.65625 422.283,251.52825 419.136,247.22325 C415.306,241.98425 417.878,234.94425 420.542,231.49125 C424.143,226.82025 433.943,231.42725 441.532,236.11625 C447.125,239.57025 477.896,260.58125 479.204,261.47425 L480.009,262.02425 L475.022,269.73525 L475.022,269.73525 Z" id="Fill-82" fill="#1B1A19"></path>
                <path d="M475.723,268.54025 L477.468,270.61025 L477.418,271.04025 C477.406,271.13925 476.271,280.92825 476.168,282.11625 C476.131,282.55325 476.189,282.90625 476.252,283.09625 C476.39,283.02725 476.636,282.87125 477.004,282.51825 C478.42,281.16125 480.626,274.44925 481.78,270.22125 C481.139,269.33225 479.511,267.09325 478.295,265.54025 L475.723,268.54025 Z M476.117,285.14925 C475.859,285.14925 475.611,285.09325 475.375,284.98025 C474.341,284.48525 474.077,283.08825 474.176,281.94425 C474.269,280.85825 475.157,273.17725 475.382,271.23925 L473.098,268.53025 L478.326,262.43125 L479.084,263.33225 C480.564,265.09425 483.556,269.26225 483.683,269.43825 L483.958,269.82225 L483.836,270.27925 C483.526,271.44225 480.74,281.70925 478.387,283.96325 C477.563,284.75325 476.802,285.14925 476.117,285.14925 L476.117,285.14925 Z" id="Fill-83" fill="#1B1A19"></path>
                <path d="M444.129,267.35425 L444.037,267.42125 C442.15,268.79725 440.787,269.79225 440.787,273.74925 C440.787,278.92225 441.563,282.82325 442.169,283.62825 C442.8,283.35225 444.099,281.75925 443.494,273.17825 C443.465,272.76225 443.445,272.46725 443.445,272.33325 C443.445,271.85325 443.446,270.89825 448.97,267.88925 L446.181,266.30325 L444.129,267.35425 Z M442.063,285.67325 C441.667,285.67325 441.28,285.52425 440.954,285.24225 C438.848,283.42025 438.787,274.73325 438.787,273.74925 C438.787,268.77425 440.856,267.26525 442.858,265.80525 L443.146,265.61025 L446.229,264.03125 L453.144,267.96025 L451.506,268.80725 C448.994,270.10625 446.077,271.85325 445.454,272.53725 C445.462,272.66525 445.475,272.83325 445.488,273.03725 C445.884,278.63825 445.876,285.13425 442.29,285.65625 C442.214,285.66825 442.138,285.67325 442.063,285.67325 L442.063,285.67325 Z" id="Fill-84" fill="#1B1A19"></path>
                <path d="M106.216,319.46825 C105.553,319.46825 104.883,319.69325 104.193,320.14625 C99.268,323.37925 98.137,328.88625 98.126,328.94025 L98.124,328.95325 C96.838,335.09525 93.59,351.92725 91.092,364.96525 C90.736,366.82125 91.355,368.95325 92.79,370.81125 C94.539,373.07825 97.223,374.59425 99.794,374.76625 L130.32,376.10525 L131.111,372.32625 C118.644,369.71325 104.079,366.49325 103.104,365.51725 C102.267,364.68125 100.525,362.93925 102.563,360.64625 C103.803,358.90425 112.642,330.10425 112.317,327.21925 C112.099,325.28125 110.134,320.98725 107.578,319.78725 C107.125,319.57425 106.672,319.46825 106.216,319.46825 Z M131.929,378.17825 L99.683,376.76325 C96.487,376.54925 93.327,374.78125 91.207,372.03425 C89.422,369.72225 88.664,367.00825 89.128,364.58825 C91.627,351.54625 94.876,334.70825 96.165,328.54825 C96.234,328.20025 97.52,322.13425 103.096,318.47425 C104.839,317.32925 106.684,317.15725 108.428,317.97725 C111.846,319.58225 114.038,324.62425 114.305,326.99525 C114.633,329.91425 105.823,359.99025 104.059,361.97425 C103.397,362.71925 103.445,363.02025 104.452,364.03625 C106.126,364.88025 122.476,368.47925 132.499,370.57325 L133.478,370.77725 L131.929,378.17825 L131.929,378.17825 Z" id="Fill-85" fill="#1B1A19"></path>
                <path d="M103.895,316.74125 C105.262,316.74125 106.786,317.27325 107.705,317.65625 L111.071,312.26425 L106.177,310.00725 L100.84,317.01625 C101.828,316.86725 102.945,316.74125 103.895,316.74125 Z M108.453,320.23625 L107.635,319.81925 C107.614,319.80825 105.5,318.74125 103.895,318.74125 C101.842,318.74125 98.728,319.43525 98.697,319.44225 L96.02,320.04425 L105.558,307.51825 L113.968,311.39825 L108.453,320.23625 L108.453,320.23625 Z" id="Fill-86" fill="#1B1A19"></path>
                <path d="M108.184,307.43725 C111.758,310.41825 116.028,313.57625 116.99,313.69625 C117.116,313.72625 117.16,313.66625 117.185,313.64125 C117.676,313.16625 117.676,311.02725 117.675,309.46625 L117.675,309.30325 C117.675,306.49225 116.667,302.29325 114.414,299.24025 L112.894,297.29325 L108.786,300.11625 L108.184,307.43725 Z M117.001,315.69625 C116.97,315.69625 116.939,315.69525 116.909,315.69425 C115.001,315.63125 108.995,310.73725 106.5,308.63625 L106.105,308.30425 L106.871,299.00525 L113.312,294.57825 L116.015,298.04125 C118.543,301.46125 119.675,306.16125 119.675,309.30325 L119.675,309.46525 C119.676,311.90625 119.676,314.01525 118.575,315.07925 C118.156,315.48425 117.613,315.69625 117.001,315.69625 L117.001,315.69625 Z" id="Fill-87" fill="#1B1A19"></path>
                <path d="M119.022,307.34025 C117.689,308.67425 115.006,309.77125 112.91,308.76325 C112.101,308.37425 110.58,307.20225 109.648,306.45725 C109.73,304.39125 109.53,302.56225 109.333,301.23025 C108.868,298.09125 116.09,297.08125 116.59,293.74825 C117.09,290.41525 112.09,288.58125 109.292,289.74825 C106.494,290.91525 105.09,293.91525 101.59,295.58125 C98.09,297.24825 99.09,300.91525 99.423,304.08125 C99.756,307.24825 102.705,313.40025 106.59,312.48825 C106.86,312.42525 107.107,312.32825 107.333,312.20325 C108.17,311.74125 109.228,312.01125 109.862,312.72625 C111.373,314.43125 113.148,316.45325 113.856,317.33725 C115.189,319.00025 117.689,318.50725 119.022,315.67425 C120.356,312.84025 120.356,306.00725 119.022,307.34025" id="Fill-88" fill="#1B1A19"></path>
                <path d="M131.138,444.69825 L118.529,441.20625 L118.655,440.33525 C118.82,439.18325 122.735,412.07625 124.695,406.16325 C125.389,404.06825 126.551,400.40825 128.149,395.28625 L130.059,395.88225 C128.457,401.01625 127.292,404.68625 126.594,406.79225 C124.881,411.96025 121.462,434.96525 120.761,439.74925 L129.817,442.25725 L140.729,408.05125 L142.634,408.65825 L131.138,444.69825" id="Fill-89" fill="#1B1A19"></path>
                <path d="M148.986,388.74525 L147.081,388.13825 L148.324,384.24025 C148.745,382.92025 148.518,381.52125 147.701,380.40325 C146.883,379.28525 145.621,378.64325 144.236,378.64325 L139.113,378.64325 L139.113,376.64325 L144.236,376.64325 C146.266,376.64325 148.117,377.58425 149.315,379.22425 C150.514,380.86325 150.847,382.91325 150.229,384.84825 L148.986,388.74525" id="Fill-90" fill="#1B1A19"></path>
                <path d="M134.967,394.45925 L158.602,436.22725 L165.914,430.34925 L144.542,383.15425 C143.275,380.35625 140.581,378.53825 137.51,378.40925 L100.158,376.84225 L73.343,372.68825 C73.223,373.27025 73.09,373.84525 72.96,374.40725 C71.988,378.60225 71.07,382.56525 75.771,388.70225 C80.437,394.79325 119.65,394.93725 134.363,394.47725 L134.967,394.45925 Z M158.021,439.26125 L133.821,396.49525 C126.055,396.71725 80.136,397.68925 74.184,389.91925 C68.909,383.03325 69.978,378.41825 71.012,373.95625 C71.216,373.07425 71.409,372.24225 71.555,371.38425 L71.72,370.41325 L100.409,374.85625 L137.594,376.41125 C141.423,376.57125 144.784,378.83925 146.364,382.33025 L168.375,430.93725 L158.021,439.26125 L158.021,439.26125 Z" id="Fill-91" fill="#1B1A19"></path>
                <path d="M134.395,395.47725 C134.395,395.47725 89.869,396.86525 77.558,391.14325 L40.679,391.14325 L40.679,404.64725 L139.113,404.64725 L139.113,403.81625 L134.395,395.47725" id="Fill-92" fill="#1B1A19"></path>
                <path d="M138.593,144.37925 C138.593,144.37925 124.424,142.70425 107.829,139.01525 C91.233,135.32525 96.165,130.91925 77.064,127.22925 L77.064,162.20825 L138.593,162.20825 L138.593,144.37925" id="Fill-93" fill="#1B1A19"></path>
                <path d="M101.895,103.95025 L102.215,104.39625 C102.795,105.20625 103.445,106.24225 104.197,107.44125 C107.933,113.40325 113.58,122.41525 121.085,120.67025 C122.133,120.42625 122.925,119.77925 123.505,118.69325 C127.844,110.56925 118.633,84.09525 116.705,78.76725 L103.107,83.87225 C100.371,85.74125 96.235,89.60925 98.398,94.93225 L99.491,97.62025 L98.419,97.92625 C98.393,97.93225 95.632,98.75125 94.784,100.58625 C94.423,101.36625 94.466,102.23225 94.917,103.23325 C95.306,103.78525 98.373,104.14325 101.346,103.98125 L101.895,103.95025 Z M119.194,122.89125 C111.518,122.89125 105.953,114.01025 102.502,108.50425 C101.903,107.54725 101.37,106.69725 100.899,106.00525 C98.477,106.10225 93.971,106.00425 93.093,104.05425 C92.399,102.51125 92.358,101.05825 92.973,99.73725 C93.804,97.94925 95.656,96.89825 96.831,96.38825 L96.546,95.68625 C94.559,90.79625 96.578,85.86225 102.085,82.14825 L102.293,82.04125 L117.878,76.19025 L118.231,77.12425 C118.735,78.45525 130.502,109.83625 125.269,119.63625 C124.414,121.23825 123.158,122.24125 121.537,122.61725 C120.736,122.80425 119.955,122.89125 119.194,122.89125 L119.194,122.89125 Z" id="Fill-94" fill="#1B1A19"></path>
                <path d="M103.231,93.09925 C106.392,100.13825 107.795,103.55425 111.435,103.42325 C115.076,103.29225 127.867,97.76125 128.602,97.18525 C129.336,96.61025 126.318,84.54225 124.441,83.93725 C122.564,83.33425 101.341,88.89025 103.231,93.09925" id="Fill-95" fill="#1B1A19"></path>
                <path d="M461.155,242.93725 L459.956,241.33625 C464.64,237.82925 471.303,231.85925 471.454,229.56825 C471.501,228.86625 471.475,226.83225 471.441,224.25625 C471.17,203.27625 471.771,188.93925 475.587,187.16125 L476.433,188.97425 C473.007,190.57025 473.334,215.90525 473.441,224.23025 C473.477,226.95325 473.502,228.92025 473.45,229.70125 C473.184,233.73725 463.161,241.43525 461.155,242.93725" id="Fill-96" fill="#1B1A19"></path>
                <path d="M460.731,192.04525 C456.942,192.04525 453.591,189.31325 451.718,186.17025 L453.437,185.14625 C454.813,187.45725 458.253,191.03325 462.444,189.79225 C466.339,188.63325 467.541,185.31625 467.59,185.17625 L469.481,185.82425 C469.421,186.00425 467.926,190.24725 463.015,191.70825 C462.242,191.93825 461.478,192.04525 460.731,192.04525" id="Fill-97" fill="#1B1A19"></path>
                <polygon id="Fill-98" fill="#1B1A19" points="355.458 358.17225 446.731 358.17225 446.731 356.17225 355.458 356.17225"></polygon>
                <polygon id="Fill-99" fill="#1B1A19" points="444.411 218.66925 446.411 218.66925 446.411 206.14325 444.411 206.14325"></polygon>
                <path d="M132.77,376.19325 L136.811,376.38325 C136.372,375.70825 134.728,374.27525 133.118,373.37925 L132.77,376.19325 Z M138.897,378.48225 L130.52,378.09025 L131.457,370.52325 L132.637,370.95425 C134.722,371.71425 138.891,374.62525 138.895,376.45425 L138.897,378.48225 L138.897,378.48225 Z" id="Fill-100" fill="#1B1A19"></path>
                <path d="M91.186,135.30525 L117.54,142.77725 C117.752,140.10225 118.152,133.31025 117.435,126.61325 C117.291,125.26825 117.183,123.94325 117.112,122.66225 C110.511,121.27425 105.716,113.62825 102.499,108.49825 C101.899,107.54225 101.367,106.69225 100.896,106.00025 C100.282,106.01725 99.245,106.02925 98.136,105.96325 L98.136,115.20625 C98.136,122.94525 94.566,129.91525 91.186,135.30525 Z M119.298,145.35525 L88.047,136.49325 L88.781,135.35725 C92.206,130.05825 96.136,122.97925 96.136,115.20625 L96.136,103.75625 L97.249,103.88125 C99.165,104.09925 101.326,103.98225 101.347,103.98125 L101.896,103.95025 L102.215,104.39625 C102.794,105.20425 103.443,106.23825 104.193,107.43525 C107.343,112.45925 112.104,120.05025 118.196,120.81725 L119.033,120.92325 L119.07,121.76625 C119.134,123.25325 119.253,124.81225 119.423,126.40025 C120.363,135.17325 119.433,144.08725 119.423,144.17625 L119.298,145.35525 L119.298,145.35525 Z" id="Fill-101" fill="#1B1A19"></path>
                <path d="M96.136,98.88625 L96.136,94.01625 L100.247,97.39825 L98.422,97.92525 C98.42,97.92525 98.05,98.03525 97.543,98.26125 L96.136,98.88625" id="Fill-102" fill="#1B1A19"></path>
                <path d="M94.005,103.64325 C92.218,99.67425 96.086,97.74025 97.584,97.15925 C97.977,95.66525 98.254,93.09425 98.818,92.14725 C101.797,87.14725 117.059,83.13125 118.266,81.54125 C119.473,79.95125 120.538,77.03025 119.116,68.12025 C117.694,59.20925 108.613,54.30025 108.134,55.05625 C107.656,55.81025 107.658,59.49825 101.639,63.64425 C95.621,67.79125 84.821,76.52025 83.916,83.62925 C83.011,90.73825 87.409,100.36525 93.264,104.63725 L96.145,109.31025 C96.145,109.31025 96.175,107.35725 96.396,104.76925 C95.244,104.57525 94.272,104.23625 94.005,103.64325" id="Fill-103" fill="#1B1A19"></path>
                <path d="M421.334,232.10125 C424.829,227.56825 436.496,234.18025 441.007,236.96625 C443.581,238.55725 451.654,243.97825 459.666,249.40025 L464.588,249.40025 L452.411,218.66925 L410.657,218.66925 L418.486,238.43025 C419.007,235.91225 420.173,233.60725 421.334,232.10125" id="Fill-104" fill="#1B1A19"></path>
                <path d="M422.429,248.37725 L422.834,249.40025 L424.421,249.40025 C423.677,249.03825 423.01,248.69625 422.429,248.37725" id="Fill-105" fill="#1B1A19"></path>
                <path d="M442.146,284.66725 C441.466,284.76625 440.946,283.68225 440.568,282.06325 L433.849,282.06325 L433.849,293.62525 L445.411,293.62525 L445.411,282.06325 L444.187,282.06325 C443.817,283.47625 443.19,284.51525 442.146,284.66725" id="Fill-106" fill="#1B1A19"></path>
            </g>
        </g>
    </g>
</svg>