<?xml version="1.0" encoding="UTF-8"?>
<svg width="800px" height="592px" viewBox="0 0 800 592" version="1.1" xmlns="http://www.w3.org/2000/svg" xmlns:xlink="http://www.w3.org/1999/xlink">
    <!-- Generator: Sketch 58 (84663) - https://sketch.com -->
    <title>Microskills</title>
    <desc>Created with Sketch.</desc>
    <g id="Scenarios" stroke="none" stroke-width="1" fill="none" fill-rule="evenodd">
        <g id="-g-Exyte_Illustrations" transform="translate(-300.000000, -7070.000000)" fill="#1B1A19">
            <g id="Microskills" transform="translate(453.000000, 7184.000000)">
                <path d="M458.122,255.575 L441.859,239.311 L450.53,230.64 C453.197,233.015 457.93,233.275 460.781,233.424 C461.112,233.441 461.415,233.457 461.683,233.475 C461.785,233.482 461.886,233.485 461.989,233.485 C463.951,233.485 465.977,232.259 466.345,230.797 C466.582,229.86 466.128,229.006 465.164,228.567 C462.139,227.193 458.516,225.239 457.706,224.196 C457.625,224.093 457.53,223.933 457.426,223.743 L472.681,208.489 L488.944,224.753 L458.122,255.575 Z M452.374,216.319 C453.162,218.621 455.098,224.103 456.127,225.424 C457.501,227.193 462.757,229.671 464.335,230.387 C464.347,230.393 464.358,230.398 464.368,230.403 C464.15,230.79 463.101,231.566 461.816,231.48 C461.54,231.461 461.227,231.444 460.885,231.426 C458.264,231.289 453.876,231.059 451.766,229.081 C449.364,226.827 447.153,222.837 445.859,218.487 L452.374,216.319 Z M436.393,172.403 L407.042,128.278 C407.019,128.243 404.767,124.749 405.552,121.317 C405.963,119.52 407.156,118.017 409.098,116.849 C410.481,116.018 411.765,115.693 412.927,115.693 C416.945,115.693 419.504,119.574 419.658,119.812 L451.172,164.87 C452.21,166.355 452.791,168.097 452.847,169.907 L453.876,203.161 C451.182,203.81 443.865,205.572 441.17,206.226 L437.273,174.777 C437.167,173.931 436.863,173.111 436.393,172.403 Z M373.291,163.995 C371.699,165.185 369.728,165.84 367.741,165.84 L327.037,165.84 L327.037,151.922 L362.183,150.817 C363.524,150.775 364.797,150.241 365.769,149.316 L381.736,134.1 L381.736,134.101 L394.185,122.236 L394.723,121.724 C394.733,121.76 394.74,121.795 394.75,121.831 C395.097,123.135 396.003,125.901 397.253,129.554 C396.817,130.948 396.426,132.379 396.052,133.769 C395.557,135.605 395.045,137.504 394.436,139.239 C393.132,142.949 390.944,144.154 387.916,145.823 C386.35,146.685 384.577,147.662 382.751,149.134 C377.795,153.132 375.365,157.709 375.835,162.092 L373.291,163.995 Z M352.474,344.84 C352.474,354.215 344.848,361.84 335.474,361.84 L222.974,361.84 C213.6,361.84 205.974,354.215 205.974,344.84 L205.974,302.59 L212.474,302.59 L212.474,342.132 C212.474,349.783 218.699,356.007 226.349,356.007 L332.099,356.007 C339.75,356.007 345.974,349.783 345.974,342.132 L345.974,167.84 L352.474,167.84 L352.474,344.84 Z M171.253,315.673 L191.07,305.727 L189.542,302.066 L196.724,298.462 L196.724,302.59 L203.974,302.59 L203.974,315.673 L171.253,315.673 Z M143.981,327.125 C140.817,328.813 137.084,329.035 133.746,327.739 C130.404,326.441 127.801,323.758 126.588,320.331 C126.446,319.984 112.299,285.486 108.871,273.184 C107.405,267.922 106.222,258.595 114.776,255.245 C116.512,254.566 118.143,254.226 119.658,254.226 C120.945,254.226 122.148,254.471 123.258,254.963 C126.91,256.578 128.88,260.552 129.729,262.777 C133.865,273.616 143.762,302.473 143.866,302.773 C144.179,303.661 144.854,304.39 145.715,304.773 C146.578,305.155 147.569,305.167 148.439,304.803 L182.576,290.563 L188.505,304.776 L166.794,315.673 L166.474,315.673 L166.474,315.834 L143.981,327.125 Z M64.686,309.741 C69.656,297.333 76.461,280.339 93.793,261.518 C110.279,243.615 114.489,240.108 115.452,239.43 L133.97,246.335 L131.94,262.966 C131.823,262.656 131.708,262.35 131.598,262.064 C130.424,258.99 128.167,254.946 124.067,253.133 C121.145,251.84 117.772,251.924 114.047,253.383 C105.764,256.627 105.333,264.595 106.169,270.107 C105.044,276.103 107.526,282.686 107.058,284.674 C106.391,287.507 101.724,290.174 99.391,293.34 C97.058,296.507 97.724,299.507 96.724,303.007 C95.724,306.507 92.11,304.932 87.153,307.84 C85.086,309.053 83.239,311.961 82.075,315.674 L62.256,315.673 C63.04,313.852 63.844,311.843 64.686,309.741 Z M119.811,231.058 L121.648,232.274 L135.754,241.607 L134.523,244.406 L117.686,238.129 L116.747,237.778 L119.811,231.058 Z M124.917,230.931 C127.727,230.554 132.777,225.537 133.215,224.924 C133.917,223.942 133.111,222.809 131.647,220.751 C130.017,218.459 127.553,214.996 128.895,213.329 C129.52,212.554 130.279,212.741 132.427,214.201 C133.749,215.098 135.246,216.112 136.363,214.923 C137.354,213.871 136.997,212.242 136.651,210.667 C136.256,208.872 136.036,207.553 136.787,206.915 C137.695,206.14 139.35,206.264 141.263,206.407 C143.371,206.563 145.898,206.732 148.328,205.728 C148.41,210.003 148.43,215.57 148.138,219.828 C147.909,223.179 147.209,233.377 143.709,233.694 C140.73,233.972 138.072,230.812 138.044,230.779 L137.09,229.632 L132.98,237.373 L124.412,231.704 L124.917,230.931 Z M191.759,289.842 L192.224,289.548 L192.224,277.506 C192.224,273.476 194.22,270.249 194.834,269.968 C194.947,269.932 195.122,270.014 195.21,270.067 C195.712,270.357 196.216,271.08 196.38,271.734 C196.6,272.871 196.706,287.094 196.723,296.224 L188.77,300.215 L185.943,293.438 C186.917,292.892 188.617,291.833 191.759,289.842 Z M198.724,276.84 L328.724,276.84 L328.724,300.59 L198.724,300.59 L198.724,297.458 L198.724,297.457 L198.724,296.839 L198.724,276.84 Z M205.974,274.84 L212.474,274.84 L212.474,176.325 L205.974,176.325 L205.974,274.84 Z M189.633,146.689 L295.883,146.689 L295.883,150.24 C294.17,150.179 291.594,149.928 291.564,149.926 L290.484,149.82 L290.467,150.905 C290.444,152.434 291.26,155.498 294.521,156.152 C294.996,156.247 295.44,156.376 295.883,156.515 L295.883,174.325 L189.633,174.325 L189.633,146.689 Z M322.724,150.056 L322.724,91.673 L332.099,91.673 C338.647,91.673 343.974,97.001 343.974,103.548 L343.974,149.388 L322.724,150.056 Z M296.55,152.255 C296.818,152.255 297.132,152.235 297.493,152.211 C299.314,152.091 302.362,151.889 306.338,154.474 L306.562,154.619 L314.149,155.034 L314.149,164.158 C312.519,164.451 311.441,164.764 310.624,165.002 C309.641,165.286 309.048,165.455 308.175,165.422 C306.585,165.356 300.28,164.94 297.883,164.78 L297.883,157.133 C299.393,157.553 301.32,157.909 304.471,157.921 L304.463,155.921 C304.417,155.921 304.373,155.922 304.328,155.922 C300.537,155.922 298.737,155.335 297.147,154.816 C296.419,154.579 295.732,154.355 294.914,154.191 C293.459,153.899 292.869,152.861 292.629,152.03 C293.792,152.128 295.492,152.255 296.55,152.255 Z M314.561,150.313 L314.561,153.054 L307.201,152.652 C303.149,150.094 299.869,150.073 297.883,150.184 L297.883,144.689 L214.474,144.689 L214.474,103.548 C214.474,97.001 219.801,91.673 226.349,91.673 L248.782,91.673 C249.279,95.937 252.914,99.257 257.308,99.257 L301.141,99.257 C305.536,99.257 309.169,95.937 309.667,91.673 L320.724,91.673 L320.724,150.119 L314.561,150.313 Z M297.883,176.325 L297.883,166.784 C300.382,166.951 306.486,167.353 308.091,167.42 C308.199,167.424 308.302,167.427 308.404,167.427 C309.443,167.427 310.219,167.201 311.181,166.923 C312.006,166.683 313.009,166.393 314.561,166.116 L314.561,167.84 L320.724,167.84 L320.724,192.34 C320.724,210.984 315.057,233.207 288.058,233.207 C261.761,233.207 249.357,246.451 249.072,274.84 L214.474,274.84 L214.474,176.325 L297.883,176.325 Z M214.474,302.59 L330.724,302.59 L330.724,274.84 L251.072,274.84 C251.356,247.815 263.124,235.207 288.058,235.207 C310.413,235.207 322.724,219.983 322.724,192.34 L322.724,167.84 L343.974,167.84 L343.974,342.132 C343.974,348.68 338.647,354.007 332.099,354.007 L226.349,354.007 C219.801,354.007 214.474,348.68 214.474,342.132 L214.474,302.59 Z M205.974,100.84 C205.974,91.466 213.6,83.84 222.974,83.84 L335.474,83.84 C344.848,83.84 352.474,91.466 352.474,100.84 L352.474,149.121 L345.974,149.325 L345.974,103.548 C345.974,95.898 339.75,89.673 332.099,89.673 L307.724,89.673 L307.724,90.673 C307.724,94.304 304.771,97.257 301.141,97.257 L257.308,97.257 C253.677,97.257 250.724,94.304 250.724,90.673 L250.724,89.673 L226.349,89.673 C218.699,89.673 212.474,95.898 212.474,103.548 L212.474,144.689 L205.974,144.689 L205.974,100.84 Z M383.577,105.774 C380.784,105.686 376.387,97.45 374.159,89.486 L374.133,89.361 C373.847,87.942 373.459,83.613 375.362,82.377 C376.656,81.534 380.169,84.774 381.672,86.155 C383.145,87.51 383.692,88.021 384.42,87.884 L384.976,87.745 L385.166,87.365 C385.379,87.188 386.233,86.807 387.233,86.853 C388.01,86.887 388.615,87.163 389.032,87.673 C389.558,88.317 389.931,89.195 390.292,90.045 C390.503,90.541 390.71,91.024 390.948,91.454 L390.984,91.569 L391.076,91.671 C391.328,92.085 391.618,92.436 391.982,92.679 L399.552,101.103 L394.403,105.93 L388.499,100.751 L387.93,101.945 C387.413,103.031 385.641,105.794 383.577,105.774 Z M407.236,104.029 C407.142,104.05 407.051,104.069 406.955,104.091 C406.749,104.139 406.535,104.195 406.316,104.255 C406.239,104.276 406.167,104.293 406.088,104.315 C405.79,104.4 405.482,104.496 405.165,104.605 C405.099,104.628 405.03,104.655 404.963,104.679 C404.711,104.769 404.456,104.864 404.194,104.971 C404.077,105.019 403.958,105.072 403.838,105.124 C403.619,105.218 403.399,105.317 403.175,105.423 C403.041,105.488 402.906,105.556 402.769,105.625 C402.551,105.736 402.333,105.853 402.112,105.976 C401.972,106.053 401.834,106.131 401.694,106.214 C401.459,106.352 401.224,106.503 400.988,106.656 C400.861,106.738 400.736,106.816 400.61,106.902 C400.267,107.137 399.924,107.387 399.582,107.656 C399.563,107.671 399.544,107.683 399.526,107.697 C399.512,107.708 399.5,107.72 399.486,107.731 C399.216,107.946 398.959,108.165 398.709,108.385 C398.624,108.461 398.542,108.536 398.459,108.611 C398.279,108.777 398.105,108.942 397.935,109.108 C397.858,109.184 397.78,109.259 397.705,109.336 C397.5,109.542 397.304,109.749 397.117,109.954 C397.089,109.986 397.059,110.016 397.032,110.047 C396.832,110.27 396.644,110.49 396.464,110.708 C396.396,110.79 396.333,110.87 396.268,110.951 C396.149,111.1 396.035,111.246 395.924,111.391 C395.862,111.474 395.799,111.556 395.74,111.637 C395.621,111.799 395.508,111.957 395.401,112.113 C395.35,112.186 395.299,112.258 395.251,112.329 C395.137,112.499 395.029,112.664 394.928,112.824 C394.875,112.909 394.826,112.988 394.776,113.07 C394.712,113.172 394.653,113.272 394.596,113.368 C394.57,113.412 394.539,113.461 394.514,113.504 L392.601,110.36 L402.349,101.223 L403.497,100.148 L407.873,103.901 C407.834,103.907 407.79,103.918 407.75,103.926 C407.584,103.956 407.413,103.991 407.236,104.029 Z M386.578,154.06 L377.785,160.634 C377.985,156.243 381.648,152.594 384.007,150.691 C385.696,149.329 387.315,148.437 388.88,147.575 C391.907,145.907 394.766,144.332 396.323,139.902 C396.958,138.096 397.479,136.161 397.983,134.289 C398.113,133.807 398.248,133.318 398.382,132.829 C399.409,135.784 400.587,139.131 401.837,142.651 L386.578,154.06 Z M473.447,170.638 C473.143,170.918 472.836,171.196 472.524,171.471 C472.283,171.684 472.038,171.893 471.792,172.102 C471.458,172.386 471.12,172.668 470.778,172.944 C466.132,176.696 460.875,179.669 455.212,181.695 L454.846,169.845 C454.777,167.644 454.073,165.527 452.811,163.724 L421.32,118.701 C419.48,115.818 414.346,111.361 408.067,115.135 C405.636,116.597 404.133,118.532 403.599,120.886 C402.63,125.158 405.259,129.208 405.374,129.381 L434.727,173.511 C435.027,173.962 435.221,174.485 435.289,175.024 L436.5,184.793 C435.944,184.784 435.388,184.777 434.836,184.753 L434.836,184.756 C434.176,184.727 433.518,184.678 432.861,184.625 C432.698,184.612 432.534,184.6 432.371,184.585 L432.37,184.585 L432.369,184.591 C428.423,184.235 424.546,183.435 420.772,182.213 C419.803,181.9 418.842,181.566 417.913,181.207 C417.902,181.202 417.89,181.199 417.878,181.194 C415.472,174.609 398.454,127.955 396.681,121.316 C396.553,120.836 396.44,120.37 396.334,119.912 L396.263,119.59 C396.06,118.669 395.881,117.546 395.759,116.696 C395.715,116.34 395.674,115.986 395.649,115.648 C395.651,115.644 395.653,115.64 395.655,115.636 C395.96,114.982 396.897,113.165 398.644,111.252 C398.672,111.221 398.7,111.19 398.729,111.159 C399,110.865 399.292,110.57 399.604,110.277 C399.649,110.234 399.697,110.192 399.743,110.149 C400.066,109.851 400.404,109.554 400.768,109.265 C400.825,109.22 400.882,109.182 400.939,109.138 C401.167,108.962 401.395,108.789 401.623,108.631 C401.701,108.576 401.779,108.529 401.857,108.477 C402.068,108.335 402.281,108.193 402.491,108.065 C402.545,108.032 402.598,108.004 402.653,107.971 C402.89,107.83 403.126,107.694 403.36,107.57 C403.383,107.557 403.407,107.547 403.43,107.534 C406.523,105.91 409.248,105.699 410.042,105.674 C410.043,105.674 410.047,105.674 410.05,105.674 C410.142,105.671 410.197,105.671 410.232,105.671 C410.48,105.706 410.712,105.742 410.952,105.778 C411.203,105.816 411.461,105.852 411.703,105.891 C411.955,105.931 412.188,105.974 412.43,106.016 C412.65,106.054 412.879,106.091 413.09,106.13 C413.324,106.173 413.537,106.219 413.759,106.264 C413.959,106.304 414.169,106.343 414.36,106.385 C414.572,106.43 414.761,106.478 414.96,106.525 C415.142,106.568 415.334,106.609 415.503,106.652 C415.692,106.699 415.857,106.749 416.033,106.797 C416.193,106.842 416.366,106.885 416.516,106.931 C416.675,106.979 416.811,107.027 416.959,107.076 C417.102,107.124 417.257,107.171 417.39,107.219 C417.529,107.27 417.643,107.321 417.769,107.373 C417.885,107.42 418.013,107.467 418.119,107.515 C418.335,107.614 418.529,107.715 418.695,107.817 C420.553,108.952 430.913,117.832 440.052,125.667 C447.66,132.188 454.845,138.347 458.25,141.047 C458.573,141.302 458.921,141.581 459.292,141.877 C459.485,142.031 459.698,142.204 459.902,142.368 C460.091,142.521 460.271,142.665 460.469,142.825 C460.75,143.052 461.049,143.296 461.347,143.538 C461.483,143.649 461.611,143.752 461.75,143.865 C462.031,144.094 462.327,144.336 462.62,144.575 C462.805,144.727 462.984,144.873 463.174,145.028 C463.447,145.252 463.731,145.486 464.011,145.716 C464.228,145.894 464.441,146.068 464.662,146.25 C464.941,146.48 465.229,146.718 465.515,146.954 C465.754,147.152 465.991,147.347 466.235,147.548 C466.485,147.755 466.741,147.968 466.996,148.178 C467.297,148.429 467.598,148.678 467.904,148.932 C468.1,149.095 468.298,149.26 468.496,149.424 C468.861,149.728 469.226,150.032 469.595,150.34 C469.761,150.479 469.929,150.619 470.096,150.758 C470.502,151.098 470.91,151.438 471.318,151.78 C471.447,151.888 471.576,151.996 471.705,152.105 C472.158,152.484 472.61,152.864 473.061,153.243 C473.145,153.314 473.228,153.384 473.312,153.455 C473.81,153.874 474.306,154.294 474.798,154.71 C474.839,154.744 474.88,154.779 474.921,154.814 C475.447,155.257 475.966,155.698 476.48,156.135 C476.504,156.155 476.529,156.176 476.553,156.197 C478.467,157.824 480.27,159.373 481.863,160.762 C479.455,164.405 476.619,167.713 473.447,170.638 Z M135.111,43.193 L150.828,58.909 L135.111,74.626 L119.394,58.909 L135.111,43.193 Z M155.24,54.497 L139.523,38.781 L155.24,23.064 L170.957,38.781 L155.24,54.497 Z M456.54,221.802 C455.8,220.012 454.93,217.613 454.272,215.687 L456.245,215.03 L455.278,183.786 C461.237,181.732 466.777,178.674 471.674,174.784 L471.68,174.792 C471.86,174.65 472.032,174.498 472.209,174.353 C472.55,174.075 472.891,173.797 473.225,173.511 C473.508,173.269 473.784,173.024 474.06,172.777 C474.367,172.505 474.673,172.233 474.974,171.952 C475.059,171.874 475.148,171.799 475.232,171.72 L475.225,171.713 C478.279,168.837 481.015,165.609 483.372,162.08 L483.389,162.095 L483.968,161.189 C483.984,161.164 484.001,161.14 484.017,161.115 L484.479,160.391 L484.466,160.38 C489.857,151.646 492.709,141.616 492.709,131.311 C492.709,100.708 467.812,75.811 437.209,75.811 C421.485,75.811 406.544,82.497 396.013,94.172 L394.546,92.54 C397.773,90.399 396.595,82.206 395.911,78.691 C395.494,76.547 394.47,74.913 392.868,73.836 C390.657,72.349 387.936,72.352 386.572,72.474 C385.907,70.826 383.988,67.173 379.546,65.429 C378.078,64.852 376.674,64.898 375.377,65.568 C373.267,66.657 371.978,69.2 371.32,70.904 C370.97,70.659 370.545,70.438 370.038,70.292 C368.641,69.889 367.076,70.194 365.39,71.191 C363.79,72.136 363.323,73.371 363.212,74.24 C362.954,76.285 364.332,78.299 365.173,79.315 C364.533,80.259 363.571,82.053 363.571,84.311 C363.571,86.148 365.037,88.31 367.217,89.69 C368.969,90.798 370.811,91.184 372.439,90.834 C374.824,99.067 379.37,107.643 383.514,107.773 C385.624,107.857 387.286,106.351 388.361,104.977 C384.005,113.043 381.709,122.101 381.709,131.311 C381.709,131.327 381.71,131.344 381.71,131.361 L364.389,147.868 C363.775,148.454 362.969,148.791 362.121,148.818 L354.474,149.058 L354.474,100.84 C354.474,90.364 345.951,81.84 335.474,81.84 L284.724,81.84 L284.724,37.673 L172.677,37.673 L155.24,20.236 L136.695,38.781 L155.24,57.325 L172.892,39.673 L282.724,39.673 L282.724,81.84 L222.974,81.84 C212.498,81.84 203.974,90.364 203.974,100.84 L203.974,144.689 L187.633,144.689 L187.633,176.325 L203.974,176.325 L203.974,274.84 L198.522,274.84 C198.47,272.928 198.406,271.59 198.324,271.264 C198.026,270.07 197.176,268.893 196.21,268.335 C195.574,267.967 194.907,267.867 194.284,268.046 C192.457,268.568 190.224,273.036 190.224,277.506 L190.224,288.447 C188.29,289.669 186.275,290.916 185.164,291.571 L183.652,287.946 L154.782,299.99 C147.64,284.314 137.651,262.335 134.822,255.858 L136.033,245.942 L138.264,240.87 L134.655,238.482 L137.518,233.092 C138.795,234.253 141.154,235.929 143.891,235.687 C148.458,235.272 149.59,227.885 150.134,219.965 C150.456,215.274 150.404,209.027 150.305,204.605 C155.123,201.028 158.033,192.741 157.31,189.218 C157.033,187.865 156.25,187.256 155.642,186.983 C153.91,186.204 151.223,186.962 146.937,189.444 C144.951,190.593 141.12,191.044 137.416,191.48 C136.964,191.533 136.511,191.588 136.058,191.642 L136.058,76.507 L153.656,58.909 L135.111,40.364 L116.566,58.909 L134.058,76.402 L134.058,191.899 C130.702,192.366 127.571,193.025 125.618,194.427 C120.376,198.19 119.986,204.054 119.798,206.872 C119.779,207.152 119.762,207.411 119.743,207.623 C116.632,209.967 115.979,212.087 117.138,215.826 C117.176,215.95 120.658,226.869 123.106,230.048 L122.744,230.601 L118.961,228.098 L114.572,237.727 C112.596,238.938 107.473,243.709 92.323,260.163 C74.742,279.254 67.857,296.445 62.83,308.998 C61.772,311.638 60.773,314.131 59.812,316.262 L59.176,317.673 L123.348,317.674 C124.186,319.741 124.698,320.988 124.721,321.045 C126.11,324.975 129.135,328.094 133.021,329.603 C134.695,330.253 136.451,330.574 138.202,330.574 C140.516,330.574 142.819,330.012 144.9,328.901 L167.268,317.673 L203.974,317.673 L203.974,344.84 C203.974,355.317 212.498,363.84 222.974,363.84 L335.474,363.84 C345.951,363.84 354.474,355.317 354.474,344.84 L354.474,167.84 L367.741,167.84 C370.157,167.84 372.553,167.044 374.488,165.596 L387.466,155.892 C393.494,168.062 403.806,177.634 416.307,182.724 L416.724,182.89 C416.855,182.942 416.989,182.986 417.121,183.037 C417.703,183.263 418.289,183.482 418.88,183.689 C419.134,183.778 419.389,183.863 419.644,183.948 C419.898,184.033 420.148,184.125 420.403,184.206 L420.404,184.202 C420.404,184.202 420.404,184.203 420.405,184.203 L420.409,184.191 C424.339,185.444 428.376,186.253 432.485,186.601 C432.702,186.619 432.917,186.638 433.135,186.654 C433.451,186.677 433.767,186.697 434.084,186.715 L434.084,186.714 C434.969,186.764 435.857,186.793 436.748,186.8 L440.879,220.145 L443.968,219.117 C445.148,223.066 446.994,226.659 449.144,229.197 L439.031,239.311 L458.122,258.403 L491.772,224.753 L472.681,205.661 L456.54,221.802 L456.54,221.802 Z" id="Fill-1"></path>
                <path d="M135.004,2.828 L150.721,18.545 L135.004,34.262 L119.288,18.545 L135.004,2.828 Z M153.549,18.545 L135.004,0 L116.459,18.545 L135.004,37.09 L153.549,18.545 L153.549,18.545 Z" id="Fill-2"></path>
                <polyline id="Fill-3" points="133.42 38.673 114.875 20.129 96.331 38.673 114.875 57.218 133.42 38.673"></polyline>
                <path d="M185.703,354.176 L168.117,336.59 L185.703,336.59 L185.703,354.176 Z M187.703,359.005 L187.703,334.59 L163.289,334.59 L187.703,359.005 L187.703,359.005 Z" id="Fill-4"></path>
                <path d="M380.272,290.877 C379.241,290.282 378.647,289.519 378.643,288.79 L378.643,233.443 C378.839,233.585 379.048,233.722 379.272,233.851 C380.846,234.759 382.862,235.214 384.875,235.214 C385.008,235.214 385.14,235.195 385.274,235.191 L385.274,291.938 C383.468,292 381.622,291.655 380.272,290.877 Z M380.238,227.944 C381.479,227.223 383.15,226.863 384.825,226.863 C386.5,226.863 388.18,227.224 389.431,227.947 C390.465,228.544 391.058,229.308 391.059001,230.045 C391.06,230.773 390.478,231.529 389.461,232.12 C386.98,233.563 382.771,233.561 380.272,232.118 C379.238,231.521 378.644,230.756 378.642999,230.019 C378.642,229.29 379.223,228.534 380.238,227.944 Z M390.431,226.215 C387.281,224.396 382.364,224.396 379.233,226.215 C377.561,227.187 376.64,228.539 376.642993,230.021 C376.642993,230.025 376.644,230.028 376.644,230.031 L376.642993,230.031 L376.642993,288.795 C376.651,290.281 377.584,291.635 379.272,292.609 C380.846,293.517 382.861,293.972 384.875,293.972 C386.889,293.971 388.902,293.517 390.467,292.607 C392.148,291.63 393.069,290.272 393.059081,288.79 L393.059081,230.031 L393.058,230.031 C393.052,228.545 392.12,227.19 390.431,226.215 L390.431,226.215 Z" id="Fill-5"></path>
                <path d="M49.074,263.387 C47.082,266.484 43.72,268.346 40.05,268.422 C35.219,268.271 31.333,264.303 31.333,259.436 L31.333,257.293 L24.8,257.293 L43.669,227.961 C45.654,224.875 48.999,223.016 52.654,222.928 C57.463,223.104 61.325,227.061 61.325,231.912 L61.325,234.055 L67.943,234.055 L49.074,263.387 Z M92.658,234.055 L92.658,231.912 C92.658,225.846 87.723,220.912 81.658,220.912 L51.467,220.912 L51.467,221.003 C47.599,221.433 44.125,223.554 41.988,226.879 L22.423,257.293 L-1.42108547e-14,257.293 L-1.42108547e-14,259.436 C-1.42108547e-14,265.501 4.934,270.436 11,270.436 L41.19,270.436 L41.19,270.35 C45.092,269.942 48.601,267.818 50.755,264.469 L70.32,234.055 L92.658,234.055 L92.658,234.055 Z" id="Fill-6"></path>
                <path d="M321.724,59.856 C323.93,59.856 325.724,61.65 325.724,63.856 C325.724,66.061 323.93,67.856 321.724,67.856 C319.518,67.856 317.724,66.061 317.724,63.856 C317.724,61.65 319.518,59.856 321.724,59.856 Z M321.724,69.856 C325.033,69.856 327.724,67.164 327.724,63.856 C327.724,60.547 325.033,57.856 321.724,57.856 C318.416,57.856 315.724,60.547 315.724,63.856 C315.724,67.164 318.416,69.856 321.724,69.856 L321.724,69.856 Z" id="Fill-7"></path>
                <polygon id="Fill-8" points="250.058 343.007 310.058 343.007 310.058 341.007 250.058 341.007"></polygon>
                <path d="M46.372,242.174 C44.439,242.174 42.872,243.74 42.872,245.674 C42.872,247.607 44.439,249.174 46.372,249.174 C48.305,249.174 49.872,247.607 49.872,245.674 C49.872,243.74 48.305,242.174 46.372,242.174" id="Fill-9"></path>
                <polyline id="Fill-10" points="203.584 154.868 197.947 160.507 203.584 166.146 204.999 164.732 200.775 160.507 204.999 156.282 203.584 154.868"></polyline>
                <polygon id="Fill-11" points="274.8 157.34 288.967 157.34 288.967 155.34 274.8 155.34"></polygon>
                <polygon id="Fill-12" points="274.8 161.507 288.967 161.507 288.967 159.507 274.8 159.507"></polygon>
                <polygon id="Fill-13" points="274.8 165.673 288.967 165.673 288.967 163.673 274.8 163.673"></polygon>
                <polyline id="Fill-14" points="226.394 288.805 220.974 283.385 215.555 288.805 220.974 294.224 226.394 288.805"></polyline>
                <polyline id="Fill-15" points="247.269 288.805 241.849 283.385 236.43 288.805 241.849 294.224 247.269 288.805"></polyline>
                <polyline id="Fill-16" points="271.385 288.805 263.724 281.144 256.064 288.805 263.724 296.465 271.385 288.805"></polyline>
                <polyline id="Fill-17" points="291.019 288.805 285.599 283.385 280.18 288.805 285.599 294.224 291.019 288.805"></polyline>
                <polyline id="Fill-18" points="311.894 288.805 306.474 283.385 301.055 288.805 306.474 294.224 311.894 288.805"></polyline>
            </g>
        </g>
    </g>
</svg>