<?xml version="1.0" encoding="UTF-8"?>
<svg width="800px" height="592px" viewBox="0 0 800 592" version="1.1" xmlns="http://www.w3.org/2000/svg" xmlns:xlink="http://www.w3.org/1999/xlink">
    <!-- Generator: Sketch 53.2 (72643) - https://sketchapp.com -->
    <title>Nowhere</title>
    <desc>Created with Sketch.</desc>
    <g id="Scenarios" stroke="none" stroke-width="1" fill="none" fill-rule="evenodd">
        <g id="-g-Exyte_Illustrations" transform="translate(-300.000000, -2226.000000)" fill="#1B1A19">
            <g id="Nowhere" transform="translate(439.000000, 2380.000000)">
                <polyline id="Fill-1" points="521.534 173.53 502.851 144.359 502.851 159.195 521.534 173.53"></polyline>
                <polyline id="Fill-2" points="493.375 180.782 491.375 180.782 491.375 148.571 521.127 172.771 519.865 174.321 493.375 152.777 493.375 180.782"></polyline>
                <polyline id="Fill-3" points="119.397 129.034 82.486 129.034 82.486 21.64 236.721 21.64 236.721 45.28 234.721 45.28 234.721 23.64 84.486 23.64 84.486 127.034 119.397 127.034 119.397 129.034"></polyline>
                <polyline id="Fill-4" points="272.633 151.674 182.67 151.674 182.67 149.674 270.633 149.674 270.633 46.28 120.397 46.28 120.397 149.674 135.402 149.674 135.402 151.674 118.397 151.674 118.397 44.28 272.633 44.28 272.633 151.674"></polyline>
                <polyline id="Fill-5" points="244.137 139.964 182.67 139.964 182.67 137.964 242.137 137.964 242.137 57.99 136.402 57.99 136.402 138.964 134.402 138.964 134.402 55.99 244.137 55.99 244.137 139.964"></polyline>
                <path d="M263.24,97.978 C263.24,101.588 260.313,104.516 256.702,104.516 C253.091,104.516 250.164,101.588 250.164,97.978 C250.164,94.366 253.091,91.439 256.702,91.439 C260.313,91.439 263.24,94.366 263.24,97.978" id="Fill-6"></path>
                <path d="M284.704,50.633 L332.19,50.633 L332.19,18.242 L284.704,18.242 L284.704,50.633 Z M282.704,52.633 L334.19,52.633 L334.19,16.242 L282.704,16.242 L282.704,52.633 Z" id="Fill-7"></path>
                <polyline id="Fill-8" points="316.066 34.438 300.827 25.64 300.827 43.236 316.066 34.438"></polyline>
                <path d="M25.699,171.645 L59.72,171.645 L59.72,120.129 L25.699,120.129 L25.699,171.645 Z M23.699,173.645 L61.72,173.645 L61.72,118.129 L23.699,118.129 L23.699,173.645 Z" id="Fill-9"></path>
                <polygon id="Fill-10" points="0 195.286 24.699 195.286 24.699 172.645 0 172.645"></polygon>
                <polygon id="Fill-11" points="283.704 248.931 304.457 248.931 304.457 228.178 283.704 228.178"></polygon>
                <path d="M521.239,223.144 L519.239,223.144 L519.239,175.63 C505.135,181.023 469.855,185.762 435.624,186.784 C392.314,188.083 359.57,183.473 345.785,174.149 C340.213,170.38 337.457,165.797 337.593,160.528 C337.948,146.76 359.734,143.296 382.799,139.629 C405.546,136.013 429.068,132.273 428.314,118.16 C427.586,104.516 382.402,104.633 342.522,104.711 C312.408,104.779 283.961,104.847 271.986,99.652 L272.78,97.818 C284.374,102.845 312.624,102.778 342.517,102.711 C387.237,102.611 429.482,102.512 430.312,118.053 C431.16,133.965 406.735,137.849 383.114,141.605 C361.87,144.982 339.905,148.474 339.593,160.578 C339.476,165.122 341.936,169.131 346.905,172.492 C377.964,193.501 494.978,183.952 519.842,173.228 L521.239,172.625 L521.239,223.144" id="Fill-12"></path>
                <path d="M421.213,236.054 C387.918,236.054 356.238,232.223 343.472,221.4 C339.455,217.994 337.478,213.999 337.593,209.525 C337.681,206.131 337.594,161.01 337.593,160.555 L339.593,160.551 C339.597,162.411 339.681,206.154 339.593,209.575 C339.493,213.415 341.234,216.88 344.765,219.874 C368.073,239.634 460.441,235.084 501.365,227.208 L501.744,229.173 C481.772,233.017 450.852,236.054 421.213,236.054" id="Fill-13"></path>
                <path d="M502.555,203.611 L502.555,265.64 L519.239,239.59 L519.239,177.561 L502.555,203.611 Z M500.555,272.47 L500.555,203.025 L500.713,202.779 L521.239,170.731 L521.239,240.176 L521.08,240.422 L500.555,272.47 L500.555,272.47 Z" id="Fill-14"></path>
                <path d="M257.398,208.162 C254.553,208.162 252.246,205.856 252.246,203.011 C252.246,200.166 254.553,197.86 257.398,197.86 C260.242,197.86 262.549,200.166 262.549,203.011 C262.549,205.856 260.242,208.162 257.398,208.162 Z M242.706,217.702 L272.089,217.702 L272.089,188.32 L242.706,188.32 L242.706,217.702 Z" id="Fill-15"></path>
                <path d="M63.773,20.006 L62.359,21.42 L57.308,16.369 L52.257,21.42 L50.843,20.006 L55.894,14.955 L50.843,9.904 L52.257,8.49 L57.308,13.541 L62.359,8.49 L63.773,9.904 L58.722,14.955 L63.773,20.006 Z M41.718,0 L41.718,105.394 L83.486,105.394 L83.486,22.64 L193.954,22.64 L193.954,0 L41.718,0 L41.718,0 Z" id="Fill-16"></path>
                <path d="M62.919,281.53 L209.166,282.247 C206.091,274.384 190.531,234.905 182.725,220.853 C173.512,204.27 150.948,186.01 123.177,185.104 C123.066,185.101 122.952,185.099 122.841,185.099 C101.225,185.099 71.19,252.288 62.919,281.53 Z M212.095,284.261 L60.3,283.517 L60.641,282.262 C67.169,258.21 98.18,183.099 122.849,183.099 C122.981,183.099 123.111,183.101 123.242,183.106 C151.791,184.036 174.995,202.821 184.473,219.882 C193.183,235.561 211.382,282.421 211.565,282.893 L212.095,284.261 L212.095,284.261 Z" id="Fill-17"></path>
                <path d="M160.24,194.649 L158.242,194.572 C158.353,191.67 157.099,188.745 154.615,186.114 C149.897,181.116 141.6,178.028 132.421,177.852 C126.327,177.727 121.934,178.847 119.737,181.07 C118.536,182.283 117.982,183.798 118.04,185.701 L116.041,185.764 C115.966,183.318 116.731,181.265 118.315,179.663 C120.944,177.003 125.685,175.729 132.459,175.852 C142.164,176.038 150.99,179.362 156.07,184.741 C158.93,187.772 160.373,191.197 160.24,194.649" id="Fill-18"></path>
                <path d="M132.506,175.889 C135.143,175.889 138.138,176.082 140.531,176.762 C146.35,178.413 151.278,181.231 153.403,182.554 C154.415,179.57 157.007,172.488 159.476,170.371 C161.761,168.414 164.881,169.296 167.634,170.076 C168.892,170.433 170.08,170.769 170.979,170.769 C176.525,170.769 178.572,167.808 180.077,163.03 C181.691,157.909 181.688,134.676 181.664,129.146 L179.375,129.55 C177.661,129.853 173.839,133.683 171.31,136.217 C168.027,139.506 167.095,140.341 166.189,140.341 C165.591,140.341 164.96,140.06 164.228,139.733 C162.245,138.848 160.599,138.307 158.989,140.025 C157.722,141.377 157.585,144.678 157.464,147.59 C157.312,151.234 157.181,154.38 155.19,155.511 C147.57,159.835 140.72,156.796 137.542,154.808 C137.457,156.032 137.182,157.8 136.575,160.367 C134.547,168.958 132.228,172.528 128.914,175.999 C129.938,175.938 131.176,175.889 132.506,175.889 Z M154.493,185.688 L153.38,184.921 C153.32,184.88 147.287,180.758 139.986,178.686 C134.921,177.247 126.481,178.203 126.397,178.213 L123.479,178.552 L125.585,176.503 C129.448,172.744 132.239,170.029 134.629,159.908 C135.919,154.446 135.511,153.279 135.494,153.233 C135.494,153.234 135.536,153.339 135.669,153.459 L136.961,151.934 C136.996,151.961 137.036,151.993 137.08,152.035 C137.957,152.785 145.409,158.763 154.203,153.771 C155.229,153.189 155.355,150.17 155.466,147.507 C155.608,144.087 155.755,140.551 157.53,138.657 C160.241,135.766 163.365,137.158 165.043,137.906 C165.396,138.064 165.862,138.272 166.099,138.327 C166.717,137.987 168.471,136.23 169.894,134.804 C173.745,130.946 176.864,127.963 179.027,127.581 L183.646,126.765 L183.657,127.946 C183.668,129.152 183.905,157.538 181.984,163.632 C180.489,168.377 178.121,172.769 170.979,172.769 C169.802,172.769 168.485,172.396 167.089,172 C164.709,171.327 162.246,170.63 160.778,171.891 C158.62,173.739 155.804,181.547 154.901,184.4 L154.493,185.688 L154.493,185.688 Z" id="Fill-19"></path>
                <polygon id="Fill-20" points="32.933 135.823 51.715 135.823 51.715 133.823 32.933 133.823"></polygon>
                <polygon id="Fill-21" points="32.933 146.887 51.715 146.887 51.715 144.887 32.933 144.887"></polygon>
                <polygon id="Fill-22" points="32.933 157.95 51.715 157.95 51.715 155.95 32.933 155.95"></polygon>
                <path d="M414.4,222.596 C412.717,222.596 411.386,222.149 410.422,221.255 C409.222,220.143 407.768,217.532 411.515,212.552 L418.143,203.74 C419.3,202.201 420.39,200.449 419.697,199.13 C418.533,196.909 413.872,197.626 412.47,197.9 C406.516,199.059 399.21,202.227 391.475,205.581 C373.626,213.323 353.394,222.099 346.255,205.984 L348.083,205.173 C354.418,219.473 372.853,211.48 390.679,203.746 C398.517,200.348 405.92,197.137 412.087,195.937 C414.865,195.396 419.777,194.97 421.469,198.201 C422.842,200.819 420.747,203.604 419.74,204.943 L413.113,213.754 C411.643,215.708 410.219,218.34 411.781,219.788 C412.84,220.77 414.914,220.858 417.782,220.047 C421.514,218.989 425.185,217.567 428.735,216.192 C431.882,214.971 435.137,213.71 438.456,212.692 C447.162,210.018 454.726,209.727 460.934,211.823 C463.421,212.663 465.693,213.893 467.89,215.082 C469.097,215.736 470.345,216.41 471.6,217.003 C475.784,218.981 479.457,219.585 482.524,218.804 L483.018,220.741 C479.492,221.644 475.362,220.993 470.744,218.812 C469.442,218.196 468.169,217.507 466.938,216.841 C464.717,215.639 462.619,214.503 460.293,213.718 C454.493,211.758 447.341,212.055 439.043,214.604 C435.793,215.601 432.572,216.849 429.457,218.056 C425.864,219.448 422.15,220.888 418.327,221.971 C416.858,222.388 415.547,222.596 414.4,222.596" id="Fill-23"></path>
                <polygon id="Fill-24" points="18.092 284.254 231.13 284.254 231.13 282.254 18.092 282.254"></polygon>
                <path d="M426.85,127.03 C411.361,145.243 339.2,137.2 338.593,160.553 C338.162,177.085 368.735,184.087 405.351,185.648 C420.554,182.316 430.146,176.431 430.122,167.105 L430.122,119.503 C430.147,119.048 428.389,125.22 426.85,127.03" id="Fill-25"></path>
                <path d="M158.593,246.366 C158.717,259.158 154.697,282.524 154.697,282.524 L172.109,282.382 C167.206,274.672 162.254,255.91 159.887,246.108 C159.662,245.177 158.583,245.393 158.593,246.366" id="Fill-26"></path>
                <path d="M172.012,106.579 C165.346,104.099 153.381,103.559 146.265,106.609 C139.149,109.658 132.67,120.047 131.627,130.599 C130.684,140.133 133.101,149.105 136.496,155.231 C136.715,153.029 144.763,160.279 154.697,154.641 C157.708,152.932 155.211,142.594 158.26,139.341 C161.31,136.088 164.766,139.341 166.189,139.341 C167.613,139.341 175.745,129.176 179.201,128.566 C182.657,127.955 182.657,127.955 182.657,127.955 C182.657,127.955 183.31,128.283 183.57,127.063 C183.83,125.843 182.541,110.496 172.012,106.579" id="Fill-27"></path>
                <polyline id="Fill-28" points="501.555 203.317 520.239 174.146 491.079 197.002 491.079 262.739 501.555 254.528 501.555 203.317"></polyline>
            </g>
        </g>
    </g>
</svg>