<?xml version="1.0" encoding="UTF-8"?>
<svg width="800px" height="592px" viewBox="0 0 800 592" version="1.1" xmlns="http://www.w3.org/2000/svg" xmlns:xlink="http://www.w3.org/1999/xlink">
    <!-- Generator: Sketch 53.2 (72643) - https://sketchapp.com -->
    <title>Soli</title>
    <desc>Created with Sketch.</desc>
    <g id="Scenarios" stroke="none" stroke-width="1" fill="none" fill-rule="evenodd">
        <g id="-g-Exyte_Illustrations" transform="translate(-300.000000, -2918.000000)" fill="#1B1A19">
            <g id="Soli" transform="translate(439.000000, 2984.000000)">
                <polyline id="Fill-1" points="319.77 363.766 285.627 363.766 285.627 361.766 317.77 361.766 317.77 342.974 319.77 342.974 319.77 363.766"></polyline>
                <polygon id="Fill-2" points="317.77 280.205 319.77 280.205 319.77 269.587 317.77 269.587"></polygon>
                <polyline id="Fill-3" points="319.77 258.857 317.77 258.857 317.77 81.856 175.468 81.856 175.468 106.414 173.468 106.414 173.468 79.856 319.77 79.856 319.77 258.857"></polyline>
                <polyline id="Fill-4" points="286.827 389.325 140.525 389.325 140.525 325.302 142.525 325.302 142.525 387.325 284.827 387.325 284.827 107.414 142.525 107.414 142.525 297.968 140.525 297.968 140.525 105.414 286.827 105.414 286.827 389.325"></polyline>
                <path d="M321.714,293.635 C312.014,293.635 304.123,301.526 304.123,311.226 C304.123,320.925 312.014,328.816 321.714,328.816 C331.413,328.816 339.303,320.925 339.303,311.226 C339.303,301.526 331.413,293.635 321.714,293.635 Z M321.714,330.816 C310.911,330.816 302.123,322.028 302.123,311.226 C302.123,300.423 310.911,291.635 321.714,291.635 C332.515,291.635 341.303,300.423 341.303,311.226 C341.303,322.028 332.515,330.816 321.714,330.816 L321.714,330.816 Z" id="Fill-5"></path>
                <polyline id="Fill-6" points="327.692 319.773 326.522 318.15 329.055 316.325 326.522 314.5 327.692 312.877 332.477 316.325 327.692 319.773"></polyline>
                <polygon id="Fill-7" points="312.78 317.325 329.409 317.325 329.409 315.325 312.78 315.325"></polygon>
                <polyline id="Fill-8" points="315.854 309.575 311.069 306.126 315.854 302.679 317.024 304.302 314.491 306.126 317.024 307.952 315.854 309.575"></polyline>
                <polygon id="Fill-9" points="314.137 307.126 330.766 307.126 330.766 305.126 314.137 305.126"></polygon>
                <polygon id="Fill-10" points="245.385 427.407 273.719 427.407 273.719 425.407 245.385 425.407"></polygon>
                <polygon id="Fill-11" points="141.525 344.635 285.827 344.635 285.827 342.635 141.525 342.635"></polygon>
                <polygon id="Fill-12" points="124.385 392.635 126.385 392.635 126.385 349.635 124.385 349.635"></polygon>
                <path d="M159.676,278.384 L267.676,278.384 L267.676,128.302 L159.676,128.302 L159.676,278.384 Z M157.676,280.384 L269.676,280.384 L269.676,126.302 L157.676,126.302 L157.676,280.384 Z" id="Fill-13"></path>
                <path d="M372.177,283.876 C370.622,282.987 342.464,270.445 316.63,259.003 C316.08,258.759 315.649,259.012 315.491,259.132 C315.331,259.252 314.968,259.597 315.049,260.193 C315.475,263.28 316.667,267.336 319.933,269.132 C325.887,272.405 342.129,279.474 342.292,279.545 L341.495,281.379 C340.824,281.087 325.005,274.202 318.97,270.885 C314.975,268.688 313.556,264.006 313.069,260.465 C312.912,259.323 313.368,258.227 314.288,257.534 C315.207,256.842 316.385,256.706 317.44,257.174 C329.998,262.736 371.13,280.974 373.17,282.14 L372.177,283.876" id="Fill-14"></path>
                <path d="M393.633,296.302 C393.369,295.757 387.131,282.921 386.133,280.592 C385.277,278.594 381.794,274.786 378.19,274.634 C372.944,274.413 351.367,274.254 351.15,274.252 L351.164,272.252 C351.381,272.254 372.994,272.413 378.274,272.636 C382.619,272.819 386.766,276.991 387.971,279.804 C388.951,282.089 395.368,295.294 395.432,295.428 L393.633,296.302" id="Fill-15"></path>
                <polyline id="Fill-16" points="453.481 61.298 420.4 4 398.494 41.942 396.761 40.942 420.4 0 455.214 60.298 453.481 61.298"></polyline>
                <polyline id="Fill-17" points="482.071 106.816 430.052 106.816 430.052 104.816 478.606 104.816 465.061 81.356 466.794 80.356 482.071 106.816"></polyline>
                <polyline id="Fill-18" points="410.385 106.816 358.729 106.816 386.323 59.022 388.055 60.022 362.194 104.816 410.385 104.816 410.385 106.816"></polyline>
                <polyline id="Fill-19" points="418.218 105.816 403.173 97.129 403.173 114.503 418.218 105.816"></polyline>
                <polyline id="Fill-20" points="394.162 47.007 409.209 38.32 394.162 29.633 394.162 47.007"></polyline>
                <polyline id="Fill-21" points="461.411 73.106 461.41 90.48 476.457 81.793 461.411 73.106"></polyline>
                <polygon id="Fill-22" points="303.123 136.968 379.653 136.968 379.653 134.968 303.123 134.968"></polygon>
                <polygon id="Fill-23" points="399.885 136.968 406.719 136.968 406.719 134.968 399.885 134.968"></polygon>
                <path d="M121.152,411.062 L125.385,418.395 L129.62,411.062 L121.152,411.062 Z M125.385,422.395 L117.688,409.062 L133.084,409.062 L125.385,422.395 L125.385,422.395 Z" id="Fill-24"></path>
                <path d="M111.552,147.302 C111.552,151.72 107.97,155.302 103.552,155.302 C99.134,155.302 95.552,151.72 95.552,147.302 C95.552,142.883 99.134,139.302 103.552,139.302 C107.97,139.302 111.552,142.883 111.552,147.302" id="Fill-25"></path>
                <path d="M226.925,366.552 C226.925,373.87 220.993,379.802 213.676,379.802 C206.358,379.802 200.426,373.87 200.426,366.552 C200.426,359.234 206.358,353.302 213.676,353.302 C220.993,353.302 226.925,359.234 226.925,366.552" id="Fill-26"></path>
                <path d="M477.639,270.962 C475.21,270.962 472.742,270.452 470.481,269.403 C465.23,266.968 462.262,262.324 462.339,256.661 C462.36,255.098 463.047,251.631 463.917,247.243 C465.347,240.021 467.743,227.934 466.246,225.893 C462.505,220.788 442.977,228.218 425.751,234.771 C406.457,242.112 388.232,249.045 381.268,244.647 C368.525,236.601 380.054,206.027 386.248,189.602 C386.748,188.277 387.209,187.054 387.614,185.955 C389.198,181.664 390.161,175.561 388.113,171.302 C387.1,169.195 385.412,167.727 383.095,166.937 C373.961,165.484 363.06,167.394 351.56,172.467 C320.097,186.343 275.687,210.362 242.787,245.98 L241.318,244.623 C274.45,208.752 319.117,184.59 350.754,170.637 C362.64,165.394 373.961,163.436 383.495,164.976 L383.651,165.015 C386.54,165.975 388.648,167.799 389.916,170.435 C392.234,175.258 391.216,181.972 389.491,186.648 C389.084,187.75 388.621,188.978 388.119,190.308 C382.553,205.068 370.971,235.78 382.337,242.956 C388.452,246.82 407.892,239.426 425.04,232.902 C445.525,225.108 463.214,218.378 467.859,224.71 C469.726,227.258 468.143,236.203 465.879,247.632 C465.062,251.75 464.357,255.308 464.339,256.688 C464.273,261.527 466.819,265.5 471.323,267.589 C476.368,269.93 482.557,269.248 486.372,265.932 L487.684,267.44 C485.023,269.754 481.377,270.962 477.639,270.962" id="Fill-27"></path>
                <path d="M213.56,163.192 C209.972,166.14 191.74,182.053 191.74,200.87 C191.74,223.074 210.548,233.274 213.56,234.764 C216.571,233.274 235.379,223.074 235.379,200.87 C235.379,182.038 217.15,166.138 213.56,163.192 Z M213.56,236.963 L213.158,236.787 C212.923,236.684 189.74,226.213 189.74,200.87 C189.74,179.108 212.005,161.84 212.952,161.115 L213.56,160.651 L214.167,161.115 C215.115,161.84 237.379,179.108 237.379,200.87 C237.379,226.213 214.196,236.684 213.962,236.787 L213.56,236.963 L213.56,236.963 Z" id="Fill-28"></path>
                <polygon id="Fill-29" points="212.56 244.776 214.56 244.776 214.56 161.91 212.56 161.91"></polygon>
                <polyline id="Fill-30" points="212.853 203.283 194.375 184.805 195.789 183.391 214.267 201.869 212.853 203.283"></polyline>
                <polyline id="Fill-31" points="212.853 222.206 190.033 199.387 191.447 197.973 214.267 220.792 212.853 222.206"></polyline>
                <polyline id="Fill-32" points="214.499 206.6 213.085 205.185 232.466 185.804 233.88 187.218 214.499 206.6"></polyline>
                <polyline id="Fill-33" points="214.499 225.523 213.085 224.109 235.904 201.289 237.318 202.704 214.499 225.523"></polyline>
                <polyline id="Fill-34" points="214.484 186.518 213.069 185.104 224.838 173.336 226.252 174.75 214.484 186.518"></polyline>
                <polyline id="Fill-35" points="212.677 182.736 202.589 172.647 204.003 171.233 214.091 181.322 212.677 182.736"></polyline>
                <path d="M19.353,340.077 L24.747,342.157 L56.289,316.697 L52.088,296.766 L19.353,340.077 Z M25.104,344.438 L16.157,340.988 L53.139,292.058 L58.499,317.483 L25.104,344.438 L25.104,344.438 Z" id="Fill-36"></path>
                <path d="M71.686,358.747 L76.712,358.747 C76.192,353.009 73.817,326.289 73.817,316.325 C73.817,308.158 69.509,298.475 69.465,298.378 L68.834,296.972 L70.375,296.968 C70.375,296.968 92.875,296.912 104.856,296.912 C111.445,296.912 132.714,294.955 133.37,270.122 L61.869,282.073 C59.109,282.535 56.72,284.062 55.143,286.373 C53.566,288.685 53.015,291.467 53.592,294.205 L71.686,358.747 Z M78.905,360.747 L70.169,360.747 L51.651,294.682 C50.944,291.341 51.604,288.013 53.491,285.246 C55.378,282.48 58.236,280.653 61.539,280.101 L135.385,267.758 L135.385,268.939 C135.385,296.75 112.018,298.912 104.856,298.912 C94.735,298.912 77.105,298.952 71.881,298.965 C73.111,302.031 75.817,309.543 75.817,316.325 C75.817,327.368 78.774,359.333 78.803,359.655 L78.905,360.747 L78.905,360.747 Z" id="Fill-37"></path>
                <path d="M72.213,360.747 C72.756,363.195 73.53,368.483 70.89,371.163 C67.673,374.43 67.022,376.746 66.984,378.017 L77.992,370.642 L76.911,360.747 L72.213,360.747 Z M65.995,381.086 L65.451,380.201 C65.204,379.8 63.22,376.101 69.465,369.76 C71.623,367.569 70.561,361.998 69.97,360.036 L69.582,358.747 L78.704,358.747 L80.112,371.629 L65.995,381.086 L65.995,381.086 Z" id="Fill-38"></path>
                <path d="M3.279,345.18 L14.467,352.385 L23.135,343.679 L18.16,341.76 C16.957,343.557 13.73,347.708 10.408,346.283 C6.613,344.653 4.424,344.801 3.279,345.18 Z M14.744,354.941 L-7.10542736e-15,345.447 L0.616,344.592 C0.881,344.226 3.423,341.107 11.197,344.445 C13.197,345.306 16.052,341.443 16.895,340.022 L17.326,339.296 L26.716,342.916 L14.744,354.941 L14.744,354.941 Z" id="Fill-39"></path>
                <polyline id="Fill-40" points="59.732 281.955 43.162 250.099 64.775 250.099 79.208 277.848 77.433 278.771 63.561 252.099 46.457 252.099 61.506 281.032 59.732 281.955"></polyline>
                <path d="M76.39,272.7 L78.078,275.946 L105.264,268.341 C113.536,266.027 119.314,258.412 119.314,249.822 L119.314,222.744 C119.314,220.403 118.774,218.49 117.753,217.212 C116.919,216.167 115.778,215.592 114.541,215.592 C111.803,215.592 108.893,218.391 108.893,223.579 C108.893,223.815 108.821,247.28 102.676,253.425 C98.172,257.93 80.329,270.044 76.39,272.7 Z M77.053,278.309 L73.791,272.036 L74.534,271.538 C74.752,271.392 96.435,256.838 101.262,252.011 C105.858,247.415 106.893,229.494 106.893,223.579 C106.893,217.092 110.834,213.592 114.541,213.592 C116.399,213.592 118.094,214.434 119.316,215.964 C120.623,217.6 121.314,219.944 121.314,222.744 L121.314,249.822 C121.314,259.305 114.935,267.712 105.803,270.267 L77.053,278.309 L77.053,278.309 Z" id="Fill-41"></path>
                <path d="M455.611,426.576 C455.48,425.813 442.439,350.186 434.965,336.777 C427.27,322.972 384.779,284.381 367.025,282.627 C352.701,281.213 320.993,281.163 308.027,281.208 C307.177,281.211 306.444,281.665 306.064,282.424 C305.684,283.183 305.759,284.044 306.265,284.727 C308.423,287.636 311.035,289.405 314.025,289.987 C318.181,290.795 327.409,291.367 336.333,291.92 C344.652,292.436 352.509,292.923 356.013,293.58 C363.362,294.958 371.271,300.741 371.271,310.183 C371.271,314.726 370.065,329.574 354.552,329.841 C352.786,329.871 350.57,329.864 348.006,329.854 C338.654,329.824 324.523,329.77 319.122,331.801 C315.783,333.056 313.081,335.262 311.089,338.358 C310.597,339.122 310.571,340.053 311.017,340.85 C311.47,341.659 312.298,342.132 313.216,342.111 C314.577,342.081 316.002,342.044 317.47,342.007 C329.038,341.71 343.439,341.34 350.137,343.631 C355.096,345.328 360.276,350.638 365.284,355.773 C369.166,359.752 372.832,363.511 375.888,365.039 C379.01,366.601 383.7,367.516 388.234,368.401 C394.201,369.565 399.354,370.57 401.189,372.97 C404.191,376.896 409.553,421.245 410.155,426.288 L408.169,426.525 C405.922,407.683 401.608,376.81 399.601,374.185 C398.226,372.388 392.952,371.359 387.851,370.364 C383.185,369.453 378.36,368.512 374.994,366.829 C371.635,365.149 367.855,361.273 363.852,357.169 C359.007,352.202 353.998,347.066 349.491,345.524 C343.131,343.349 328.933,343.714 317.521,344.006 C316.05,344.044 314.624,344.08 313.261,344.111 C311.635,344.15 310.082,343.272 309.272,341.827 C308.458,340.373 308.508,338.672 309.407,337.276 C311.636,333.81 314.668,331.338 318.419,329.929 C324.163,327.769 337.951,327.821 348.012,327.854 C350.57,327.864 352.774,327.871 354.517,327.841 C367.834,327.612 369.271,315.415 369.271,310.183 C369.271,301.881 362.208,296.776 355.644,295.546 C352.262,294.912 344.464,294.428 336.21,293.916 C327.221,293.359 317.927,292.783 313.644,291.95 C310.197,291.28 307.089,289.194 304.66,285.918 C303.709,284.637 303.561,282.954 304.276,281.528 C304.991,280.102 306.425,279.213 308.02,279.208 C321.02,279.163 352.805,279.213 367.222,280.637 C385.438,282.436 428.877,321.747 436.712,335.804 C444.351,349.509 457.046,423.111 457.582,426.238 L455.611,426.576" id="Fill-42"></path>
                <polygon id="Fill-43" points="287.052 427.407 518.052 427.407 518.052 425.407 287.052 425.407"></polygon>
                <polygon id="Fill-44" points="173.738 88.856 318.77 88.856 318.77 80.856 173.738 80.856"></polygon>
                <path d="M112.015,267.384 C111.713,269.238 110.509,270.877 109.27,272.123 L133.279,268.11 C132.775,263.918 130.682,246.889 129.013,238.919 C127.139,229.964 123.457,224.171 121.215,221.309 L121.311,222.674 L121.314,249.822 C121.314,256.895 117.846,263.425 112.015,267.384 Z M100.617,275.597 L105.124,272.886 C106.438,272.096 109.889,269.451 110.079,266.737 L110.113,266.239 L110.533,265.967 C116.031,262.408 119.314,256.372 119.314,249.822 L119.314,222.744 L118.84,216.039 L120.682,217.704 C120.981,217.974 128.035,224.479 130.971,238.509 C132.89,247.678 135.354,268.612 135.379,268.823 L135.489,269.768 L100.617,275.597 L100.617,275.597 Z" id="Fill-45"></path>
                <path d="M99.807,198.26 C101.089,204.781 103.092,208.692 104.637,209.735 C104.937,209.937 105.199,210.016 105.412,209.965 C107.617,209.454 107.897,204.721 107.819,202.733 C107.538,202.338 107.037,201.62 106.798,201.19 C106.296,200.794 103.992,199.961 103.397,199.882 C102.432,199.754 100.993,198.987 99.807,198.26 Z M105.282,211.98 C104.794,211.98 104.186,211.844 103.518,211.392 C100.945,209.655 98.613,203.871 97.431,196.298 L97.065,193.946 L99.001,195.33 C100.394,196.325 102.759,197.78 103.659,197.899 C103.92,197.934 107.899,198.941 108.527,200.184 C108.667,200.458 109.246,201.295 109.613,201.802 L109.782,202.036 L109.801,202.324 C109.858,203.199 110.229,210.901 105.864,211.913 C105.698,211.952 105.502,211.98 105.282,211.98 L105.282,211.98 Z" id="Fill-46"></path>
                <path d="M111.076,266.807 C113.112,265.786 114.7,264.485 115.937,263.002 C120.314,257.755 113.68,272.4 113.68,272.4 L105.638,273.744 C105.638,273.744 110.808,270.648 111.076,266.807" id="Fill-47"></path>
                <polyline id="Fill-48" points="48.358 324.467 52.613 294.412 57.394 317.09 48.358 324.467"></polyline>
                <path d="M75.09,273.061 C70.417,274.401 69.83,279.384 69.83,279.384 L77.566,277.821 L75.09,273.061" id="Fill-49"></path>
                <path d="M70.378,297.968 C70.378,297.968 74.817,307.849 74.817,316.325 C74.817,318.6 74.941,321.745 75.137,325.302 L202.385,325.302 L202.385,297.968 L70.378,297.968" id="Fill-50"></path>
                <path d="M134.401,221.874 C133.756,219.104 139.402,214.643 137.304,206.916 C135.207,199.189 119.56,201.738 117.14,200.36 C114.72,198.983 108.913,188.672 102.299,189.317 C95.686,189.962 95.069,198.724 99.052,201.135 C99.052,201.135 99.317,201.608 99.764,202.373 C99.24,200.539 98.78,198.455 98.42,196.143 C98.42,196.143 101.974,198.684 103.528,198.891 C104.271,198.989 107.341,200.053 107.635,200.635 C107.874,201.105 108.803,202.389 108.803,202.389 C108.803,202.389 109.302,210.09 105.638,210.939 C105.554,210.959 105.468,210.953 105.383,210.959 C107.699,214.016 110.083,216.405 111.437,215.586 C121.969,209.218 129.729,237.524 129.729,237.524 C129.729,237.524 139.402,232.388 139.24,228.839 C139.079,225.29 135.046,224.644 134.401,221.874" id="Fill-51"></path>
                <path d="M391.052,386.635 C375.575,394.693 370.385,409.754 358.052,413.677 C347.917,416.9 326.741,411.814 317.552,415.802 C308.719,419.635 307.719,426.407 307.719,426.407 L409.162,426.407 C409.162,426.407 405.737,397.69 402.82,382.507 C398.721,383.4 394.757,384.706 391.052,386.635" id="Fill-52"></path>
                <path d="M485.719,350.468 C475.793,361.602 466.203,372.874 454.552,377.635 C452.458,378.491 450.132,379.081 447.636,379.5 C452.547,402.817 456.596,426.407 456.596,426.407 L518.052,426.407 L518.052,331.802 C518.052,331.802 498.052,336.635 485.719,350.468" id="Fill-53"></path>
            </g>
        </g>
    </g>
</svg>