<?xml version="1.0" encoding="UTF-8" standalone="no"?>
<svg width="36px" height="35px" viewBox="0 0 36 35" version="1.1" xmlns="http://www.w3.org/2000/svg" xmlns:xlink="http://www.w3.org/1999/xlink">
    <!-- Generator: Sketch 50.2 (55047) - http://www.bohemiancoding.com/sketch -->
    <title>Group 2</title>
    <desc>Created with Sketch.</desc>
    <defs></defs>
    <g id="Page-1" stroke="none" stroke-width="1" fill="none" fill-rule="evenodd">
        <g id="1680---Home" transform="translate(-1379.000000, -5759.000000)" fill="#FFFFFF">
            <g id="Footer" transform="translate(0.000000, 5667.000000)">
                <g id="Group-2" transform="translate(1379.000000, 92.000000)">
                    <path d="M25.0610613,0 L10.209181,0 C4.57926369,0 0,4.46957872 0,9.96226742 L0,24.3651029 C0,29.8577916 4.57926369,34.3254363 10.209181,34.3254363 L25.0610613,34.3254363 C30.6909785,34.3254363 35.2682599,29.8577916 35.2682599,24.3651029 L35.2682599,9.96226742 C35.2682599,4.46957872 30.6909785,0 25.0610613,0 M17.6351211,25.9993712 C12.6494726,25.9993712 8.575712,22.0268421 8.575712,17.1627181 C8.575712,12.2985942 12.6494726,8.32413104 17.6351211,8.32413104 C22.6207697,8.32413104 26.6965126,12.2985942 26.6965126,17.1627181 C26.6965126,22.0268421 22.6207697,25.9993712 17.6351211,25.9993712 M27.1009151,10.028025 C25.9313196,10.028025 24.9857314,9.10548534 24.9857314,7.96439861 C24.9857314,6.82524592 25.9313196,5.90077226 27.1009151,5.90077226 C28.2685282,5.90077226 29.2160988,6.82524592 29.2160988,7.96439861 C29.2160988,9.10548534 28.2685282,10.028025 27.1009151,10.028025" id="Fill-7"></path>
                    <path d="M17.4990967,12 C20.5521432,12 23,14.4446452 23,17.5 C23,20.553548 20.5521432,23 17.4990967,23 C14.4460503,23 12,20.553548 12,17.5 C12,14.4446452 14.4460503,12 17.4990967,12" id="Fill-10"></path>
                </g>
            </g>
        </g>
    </g>
</svg>