<?xml version="1.0" encoding="utf-8"?>
<!-- Generator: Adobe Illustrator 20.1.0, SVG Export Plug-In . SVG Version: 6.00 Build 0)  -->
<svg version="1.1" id="Layer_1" xmlns="http://www.w3.org/2000/svg" xmlns:xlink="http://www.w3.org/1999/xlink" x="0px" y="0px"
	 viewBox="0 0 809 1080" style="enable-background:new 0 0 809 1080;" xml:space="preserve">
<style type="text/css">
	.st0{filter:url(#Adobe_OpacityMaskFilter);}
	.st1{fill:#FFFFFF;}
	.st2{mask:url(#mask-2_1_);fill:#F0F0F0;}
	.st3{filter:url(#Adobe_OpacityMaskFilter_1_);}
	.st4{mask:url(#mask-4_1_);fill:#F0F0F0;}
	.st5{fill:#F0F0F0;}
	.st6{filter:url(#Adobe_OpacityMaskFilter_2_);}
	.st7{mask:url(#mask-6_1_);fill:#F0F0F0;}
</style>
<title>Logo</title>
<desc>Created with Sketch.</desc>
<g id="Page-1">
	<g id="_x31_680---Home" transform="translate(-20.000000, -55.000000)">
		<g id="Logo" transform="translate(20.000000, 55.000000)">
			<g id="Group-3">
				<g id="Clip-2">
				</g>
				<defs>
					<filter id="Adobe_OpacityMaskFilter" filterUnits="userSpaceOnUse" x="0" y="0.9" width="150.9" height="961.1">
						<feColorMatrix  type="matrix" values="1 0 0 0 0  0 1 0 0 0  0 0 1 0 0  0 0 0 1 0"/>
					</filter>
				</defs>
				<mask maskUnits="userSpaceOnUse" x="0" y="0.9" width="150.9" height="961.1" id="mask-2_1_">
					<g class="st0">
						<polygon id="path-1_1_" class="st1" points="0,0.9 150.9,0.9 150.9,962 0,962 						"/>
					</g>
				</mask>
				<path id="Fill-1" class="st2" d="M68.4,962C23.2,962,0,938.9,0,893.9V525.1h68.4V890c0,7.7,2.6,11.6,6.5,11.6
					c5.2,0,7.7-3.9,7.7-11.6V552.1c0-20.6-2.6-25.7-11.6-39.8l-43.9-57.8C6.5,424.9,1.3,401.8,1.3,361.9V72.8
					c0-46.3,16.8-72,68.4-72h14.2c51.6,0,65.8,25.7,65.8,66.8v323.8H83.9V69c0-6.4-2.6-9-6.5-9c-5.2,0-7.7,2.6-7.7,9v298.1
					c0,20.6,2.6,24.4,11.6,38.6l43.9,59.1c24.5,30.8,25.8,51.4,25.8,92.5v331.5c0,48.8-23.2,73.2-68.4,73.2H68.4z"/>
			</g>
			<g id="Group-6" transform="translate(165.000000, 0.000000)">
				<g id="Clip-5">
				</g>
				<defs>
					<filter id="Adobe_OpacityMaskFilter_1_" filterUnits="userSpaceOnUse" x="0.8" y="0.9" width="152.2" height="1079.1">
						<feColorMatrix  type="matrix" values="1 0 0 0 0  0 1 0 0 0  0 0 1 0 0  0 0 0 1 0"/>
					</filter>
				</defs>
				<mask maskUnits="userSpaceOnUse" x="0.8" y="0.9" width="152.2" height="1079.1" id="mask-4_1_">
					<g class="st3">
						<polygon id="path-3_1_" class="st1" points="0.8,0.9 152.9,0.9 152.9,1080 0.8,1080 						"/>
					</g>
				</mask>
				<path id="Fill-4" class="st4" d="M83.9,74.1c0-7.7-2.6-11.6-6.4-11.6c-5.1,0-7.7,3.9-7.7,11.6v813.2c0,7.7,2.6,11.6,7.7,11.6
					c3.8,0,6.4-3.9,6.4-11.6V74.1z M54.5,960.5c-35.8-7.7-53.7-33.4-53.7-78.4V80.5c0-50.1,23-79.7,72.9-79.7h7.7
					c49.9,0,71.6,29.5,71.6,79.7v801.6c0,42.4-15.3,68.1-46,75.8l24.3,122H54.5V960.5z"/>
			</g>
			<path id="Fill-7" class="st5" d="M406,962c-52.9,0-71-29.5-71-65.5V4h68.4v884.8c0,6.4,2.6,10.3,6.5,10.3c5.2,0,7.7-3.9,7.7-10.3
				V4H486v892.5c0,36-20.7,65.5-71,65.5H406z"/>
			<path id="Fill-9" class="st5" d="M569.4,178.9l-10.3,491.4h18L569.4,178.9z M578.4,734.6h-20.5L552.7,961H495L527.1,4h89.8
				L649,961h-66.7L578.4,734.6z"/>
			<g id="Group-13" transform="translate(657.000000, 3.000000)">
				<g id="Clip-12">
				</g>
				<defs>
					<filter id="Adobe_OpacityMaskFilter_2_" filterUnits="userSpaceOnUse" x="0.6" y="0.8" width="150.6" height="955.9">
						<feColorMatrix  type="matrix" values="1 0 0 0 0  0 1 0 0 0  0 0 1 0 0  0 0 0 1 0"/>
					</filter>
				</defs>
				<mask maskUnits="userSpaceOnUse" x="0.6" y="0.8" width="150.6" height="955.9" id="mask-6_1_">
					<g class="st6">
						<polygon id="path-5_1_" class="st1" points="0.6,0.8 151.2,0.8 151.2,956.7 0.6,956.7 						"/>
					</g>
				</mask>
				<path id="Fill-11" class="st7" d="M68.8,896.4H74c6.4,0,9-5.1,9-14.1V72.8c0-9-2.6-12.8-9-12.8h-5.1V896.4z M0.6,0.8h96.6
					c32.2,0,54.1,18,54.1,59.1v835.2c0,37.3-16.7,61.7-51.5,61.7H0.6V0.8z"/>
			</g>
		</g>
	</g>
</g>
</svg>
