<?xml version="1.0" encoding="UTF-8" standalone="no"?>
<svg width="44px" height="49px" viewBox="0 0 44 49" version="1.1" xmlns="http://www.w3.org/2000/svg" xmlns:xlink="http://www.w3.org/1999/xlink">
    <!-- Generator: Sketch 50.2 (55047) - http://www.bohemiancoding.com/sketch -->
    <title>Group</title>
    <desc>Created with Sketch.</desc>
    <defs>
        <polygon id="path-1" points="0 0.0211523064 43.9601574 0.0211523064 43.9601574 48.9999872 0 48.9999872"></polygon>
    </defs>
    <g id="Page-1" stroke="none" stroke-width="1" fill="none" fill-rule="evenodd">
        <g id="Mobile---Model-2" transform="translate(-260.000000, -9.000000)">
            <g id="Group" transform="translate(260.000000, 9.000000)">
                <path d="M10.2649644,40 C8.76923399,40 8,39.2058819 8,37.6617225 L8,24.9999961 L10.2649644,24.9999961 L10.2649644,37.5294055 C10.2649644,37.794126 10.3504395,37.9264429 10.4786522,37.9264429 C10.6495605,37.9264429 10.7350356,37.794126 10.7350356,37.5294055 L10.7350356,25.9264744 C10.7350356,25.2205964 10.6495605,25.0441161 10.3504395,24.5588386 L8.89744664,22.5735217 C8.21364585,21.5588464 8.04273755,20.7647283 8.04273755,19.3970925 L8.04273755,9.47059448 C8.04273755,7.88235826 8.59828379,7 10.307702,7 L10.7777731,7 C12.4871913,7 12.9572625,7.88235826 12.9572625,9.29411418 L12.9572625,20.4117677 L10.7777731,20.4117677 L10.7777731,9.33823425 C10.7777731,9.11767713 10.692298,9.02943698 10.5641273,9.02943698 C10.3931771,9.02943698 10.307702,9.11767713 10.307702,9.33823425 L10.307702,19.5735295 C10.307702,20.2794075 10.3931771,20.4117677 10.692298,20.8970453 L12.1452909,22.9264823 C12.9572625,23.9852776 13,24.6911555 13,26.1029547 L13,37.4852854 C13,39.1617618 12.230766,40 10.7350356,40 L10.2649644,40 Z" id="Fill-1" fill="#FEFEFE"></path>
                <path d="M16.7310852,9.51072246 C16.7310852,9.24642225 16.6470467,9.11427214 16.520989,9.11427214 C16.3529121,9.11427214 16.2689148,9.24642225 16.2689148,9.51072246 L16.2689148,37.3928402 C16.2689148,37.6571404 16.3529121,37.7892473 16.520989,37.7892473 C16.6470467,37.7892473 16.7310852,37.6571404 16.7310852,37.3928402 L16.7310852,9.51072246 Z M15.7646841,39.9035195 C14.588228,39.6392624 14,38.7583049 14,37.21664 L14,9.73097264 C14,8.01310763 14.7562637,7 16.3949313,7 L16.6470467,7 C18.2857143,7 19,8.01310763 19,9.73097264 L19,37.21664 C19,38.670248 18.4957692,39.5511624 17.4873901,39.8154626 L18.2857143,44 L15.7646841,44 L15.7646841,39.9035195 Z" id="Fill-3" fill="#FEFEFE"></path>
                <path d="M22.3504198,40 C20.5983207,40 20,38.9825609 20,37.74393 L20,7 L22.2649454,7 L22.2649454,37.4785432 C22.2649454,37.699735 22.3504198,37.8324068 22.4786314,37.8324068 C22.6495802,37.8324068 22.7350546,37.699735 22.7350546,37.4785432 L22.7350546,7 L25,7 L25,37.74393 C25,38.9825609 24.3162049,40 22.6495802,40 L22.3504198,40 Z" id="Fill-5" fill="#FEFEFE"></path>
                <path d="M27.4166823,12.8494565 L27.0833708,29.2796095 L27.6666558,29.2796095 L27.4166823,12.8494565 Z M27.7083657,31.4301424 L27.0416609,31.4301424 L26.8749847,39 L25,39 L26.0416854,7 L28.9583555,7 L30,39 L27.833332,39 L27.7083657,31.4301424 Z" id="Fill-7" fill="#FEFEFE"></path>
                <path d="M32.2649644,36.9784671 L32.4359146,36.9784671 C32.6496024,36.9784671 32.7350775,36.8064145 32.7350775,36.5053648 L32.7350775,9.40860895 C32.7350775,9.10751702 32.6496024,8.97847762 32.4359146,8.97847762 L32.2649644,8.97847762 L32.2649644,36.9784671 Z M30,7 L33.2051067,7 C34.2735455,7 35,7.6021417 35,8.97847762 L35,36.9354539 C35,38.1827926 34.4444538,39 33.2906237,39 L30,39 L30,7 Z" id="Fill-9" fill="#FEFEFE"></path>
                <g id="Group-13">
                    <mask id="mask-2" fill="white">
                        <use xlink:href="#path-1"></use>
                    </mask>
                    <g id="Clip-12"></g>
                    <path d="M21.9800723,0.891710444 C19.1359021,0.891710444 16.3765404,1.51374178 13.7786255,2.74049025 C11.2656894,3.92710905 9.00794468,5.62684186 7.06815745,7.79247981 C5.12534894,9.96152942 3.59968936,12.4881212 2.5335617,15.302103 C1.4288383,18.2180934 0.868668085,21.3162666 0.868668085,24.5105634 C0.868668085,27.7049028 1.4288383,30.8030333 2.5335617,33.7190238 C3.59968936,36.5330055 5.12534894,39.0596399 7.06815745,41.2286469 C9.00794468,43.3942849 11.2656894,45.0940603 13.7786255,46.2806791 C16.3765404,47.5073849 19.1359021,48.1294163 21.9800723,48.1294163 C24.8242426,48.1294163 27.5836043,47.5073849 30.1815191,46.2806791 C32.6944553,45.0940603 34.9522,43.3942849 36.8920298,41.2286469 C38.8348383,39.0596399 40.3604553,36.5330055 41.426583,33.7190238 C42.5313489,30.8030333 43.0914766,27.7049028 43.0914766,24.5105634 C43.0914766,21.3162666 42.5313489,18.2180934 41.426583,15.302103 C40.3604553,12.4881212 38.8348383,9.96152942 36.8920298,7.79247981 C34.9522,5.62684186 32.6944553,3.92710905 30.1815191,2.74049025 C27.5836043,1.51374178 24.8242426,0.891710444 21.9800723,0.891710444 M21.9800723,48.9999872 C19.0069234,48.9999872 16.122966,48.3500229 13.4083702,47.0682187 C10.7900298,45.8317896 8.43934894,44.0627574 6.42173191,41.8102074 C4.40709362,39.5610264 2.82573191,36.9427461 1.72143404,34.0280351 C0.579178723,31.0129785 -1.27659574e-05,27.8108349 -1.27659574e-05,24.5105634 C-1.27659574e-05,21.2102918 0.579178723,18.0081482 1.72143404,14.9930916 C2.82573191,12.0784232 4.40709362,9.46010035 6.42173191,7.21096197 C8.43934894,4.95841192 10.7900298,3.18937972 13.4083702,1.95295065 C16.122966,0.671103829 19.0069234,0.0211395126 21.9800723,0.0211395126 C24.9532213,0.0211395126 27.8371787,0.671103829 30.551817,1.95295065 C33.1701574,3.18937972 35.5207957,4.95841192 37.5384128,7.21096197 C39.5530511,9.46010035 41.1344553,12.0784232 42.2387106,14.9930916 C43.380966,18.0081482 43.9601574,21.2102918 43.9601574,24.5105634 C43.9601574,27.8108349 43.380966,31.0129785 42.2387106,34.0280351 C41.1344553,36.9427461 39.5530511,39.5610264 37.5384128,41.8102074 C35.5207957,44.0627574 33.1701574,45.8317896 30.551817,47.0682187 C27.8371787,48.3500229 24.9532213,48.9999872 21.9800723,48.9999872" id="Fill-11" fill="#FEFEFE" mask="url(#mask-2)"></path>
                </g>
            </g>
        </g>
    </g>
</svg>