<?xml version="1.0" encoding="UTF-8" standalone="no"?>
<svg width="118px" height="132px" viewBox="0 0 118 132" version="1.1" xmlns="http://www.w3.org/2000/svg" xmlns:xlink="http://www.w3.org/1999/xlink">
    <!-- Generator: Sketch 50.2 (55047) - http://www.bohemiancoding.com/sketch -->
    <title>Group</title>
    <desc>Created with Sketch.</desc>
    <defs>
        <polygon id="path-1" points="0 0.0569817232 117.89315 0.0569817232 117.89315 131.999966 0 131.999966"></polygon>
    </defs>
    <g id="Page-1" stroke="none" stroke-width="1" fill="none" fill-rule="evenodd">
        <g id="1680---Model-1" transform="translate(-1264.000000, -22.000000)">
            <g id="Group" transform="translate(1264.000000, 22.000000)">
                <path d="M28.3419004,108 C24.1538552,108 22,105.882352 22,101.764593 L22,67.9999895 L28.3419004,67.9999895 L28.3419004,101.411748 C28.3419004,102.117669 28.5812307,102.470515 28.9402261,102.470515 C29.4187693,102.470515 29.6580996,102.117669 29.6580996,101.411748 L29.6580996,70.4705984 C29.6580996,68.5882572 29.4187693,68.117643 28.5812307,66.8235695 L24.5128506,61.5293911 C22.5982084,58.8235905 22.1196651,56.7059422 22.1196651,53.0589133 L22.1196651,26.5882519 C22.1196651,22.3529554 23.6751946,20 28.4615655,20 L29.7777647,20 C34.5641357,20 35.8803349,22.3529554 35.8803349,26.1176378 L35.8803349,55.7647139 L29.7777647,55.7647139 L29.7777647,26.2352913 C29.7777647,25.647139 29.5384345,25.4118319 29.1795564,25.4118319 C28.7008958,25.4118319 28.4615655,25.647139 28.4615655,26.2352913 L28.4615655,53.5294121 C28.4615655,55.4117533 28.7008958,55.7647139 29.5384345,57.0587874 L33.6068145,62.4706194 C35.8803349,65.2940735 36,67.1764148 36,70.9412126 L36,101.294095 C36,105.764698 33.8461448,108 29.6580996,108 L28.3419004,108 Z" id="Fill-1" fill="#FEFEFE"></path>
                <path d="M44.6470385,26.6500217 C44.6470385,25.9499833 44.4117308,25.5999641 44.0587692,25.5999641 C43.5881539,25.5999641 43.3529615,25.9499833 43.3529615,26.6500217 L43.3529615,100.499955 C43.3529615,101.199993 43.5881539,101.549898 44.0587692,101.549898 C44.4117308,101.549898 44.6470385,101.199993 44.6470385,100.499955 L44.6470385,26.6500217 Z M41.9411154,107.149862 C38.6470385,106.449938 37,104.116591 37,100.033263 L37,27.233387 C37,22.6833662 39.1175385,20 43.7058077,20 L44.4117308,20 C49,20 51,22.6833662 51,27.233387 L51,100.033263 C51,103.88336 49.5881539,106.216592 46.7646923,106.916631 L49,118 L41.9411154,118 L41.9411154,107.149862 Z" id="Fill-3" fill="#FEFEFE"></path>
                <path d="M59.5811755,108 C54.6752979,108 53,105.286829 53,101.983813 L53,20 L59.3418473,20 L59.3418473,101.276115 C59.3418473,101.86596 59.5811755,102.219751 59.9401679,102.219751 C60.4188245,102.219751 60.6581527,101.86596 60.6581527,101.276115 L60.6581527,20 L67,20 L67,101.983813 C67,105.286829 65.0853738,108 60.4188245,108 L59.5811755,108 Z" id="Fill-5" fill="#FEFEFE"></path>
                <path d="M73.7667105,35.9032098 L72.8334382,80.5726882 L74.4666362,80.5726882 L73.7667105,35.9032098 Z M74.5834239,86.4194498 L72.7166505,86.4194498 L72.2499571,107 L67,107 L69.9167191,20 L78.0833953,20 L81,107 L74.9333295,107 L74.5834239,86.4194498 Z" id="Fill-7" fill="#FEFEFE"></path>
                <path d="M88.3419004,101.503957 L88.820561,101.503957 C89.4188866,101.503957 89.6582169,101.03619 89.6582169,100.21771 L89.6582169,26.5484056 C89.6582169,25.7298119 89.4188866,25.378986 88.820561,25.378986 L88.3419004,25.378986 L88.3419004,101.503957 Z M82,20 L90.9742988,20 C93.9659273,20 96,21.6370727 96,25.378986 L96,101.387015 C96,104.778217 94.4444705,107 91.2137464,107 L82,107 L82,20 Z" id="Fill-9" fill="#FEFEFE"></path>
                <g id="Group-13">
                    <mask id="mask-2" fill="white">
                        <use xlink:href="#path-1"></use>
                    </mask>
                    <g id="Clip-12"></g>
                    <path d="M58.9465576,2.40215875 C51.3190103,2.40215875 43.9189039,4.07783499 36.9517685,7.38254517 C30.2125306,10.5791509 24.1576698,15.158023 18.9555132,20.9919864 C13.745254,26.8351405 9.65371238,33.6414695 6.79455184,41.2219916 C3.83188453,49.0773128 2.32960986,57.423412 2.32960986,66.0284564 C2.32960986,74.6336157 3.83188453,82.9796 6.79455184,90.8349211 C9.65371238,98.4154433 13.745254,105.221887 18.9555132,111.064926 C24.1576698,116.89889 30.2125306,121.477877 36.9517685,124.674483 C43.9189039,127.979078 51.3190103,129.654754 58.9465576,129.654754 C66.574105,129.654754 73.9742114,127.979078 80.9413468,124.674483 C87.6805847,121.477877 93.7354455,116.89889 98.9377162,111.064926 C104.147975,105.221887 108.239403,98.4154433 111.098563,90.8349211 C114.061345,82.9796 115.563505,74.6336157 115.563505,66.0284564 C115.563505,57.423412 114.061345,49.0773128 111.098563,41.2219916 C108.239403,33.6414695 104.147975,26.8351405 98.9377162,20.9919864 C93.7354455,15.158023 87.6805847,10.5791509 80.9413468,7.38254517 C73.9742114,4.07783499 66.574105,2.40215875 58.9465576,2.40215875 M58.9465576,131.999966 C50.9731128,131.999966 43.2388632,130.249041 35.958811,126.796018 C28.9368981,123.465229 22.6327994,118.699673 17.2219174,112.631579 C11.8190238,106.572561 7.57809923,99.5192345 4.61657311,91.6673598 C1.55325203,83.5451666 -3.42359768e-05,74.9189838 -3.42359768e-05,66.0284564 C-3.42359768e-05,57.137929 1.55325203,48.5117462 4.61657311,40.389553 C7.57809923,32.5377932 11.8190238,25.484352 17.2219174,19.4254486 C22.6327994,13.3573546 28.9368981,8.59179843 35.958811,5.26100992 C43.2388632,1.80787154 50.9731128,0.0569472585 58.9465576,0.0569472585 C66.9200025,0.0569472585 74.654252,1.80787154 81.9344184,5.26100992 C88.9563313,8.59179843 95.2603159,13.3573546 100.671198,19.4254486 C106.074091,25.484352 110.31513,32.5377932 113.276542,40.389553 C116.339863,48.5117462 117.89315,57.137929 117.89315,66.0284564 C117.89315,74.9189838 116.339863,83.5451666 113.276542,91.6673598 C110.31513,99.5192345 106.074091,106.572561 100.671198,112.631579 C95.2603159,118.699673 88.9563313,123.465229 81.9344184,126.796018 C74.654252,130.249041 66.9200025,131.999966 58.9465576,131.999966" id="Fill-11" fill="#FEFEFE" mask="url(#mask-2)"></path>
                </g>
            </g>
        </g>
    </g>
</svg>