<?xml version="1.0" encoding="UTF-8"?>
<svg width="48px" height="48px" viewBox="0 0 48 48" version="1.1" xmlns="http://www.w3.org/2000/svg" xmlns:xlink="http://www.w3.org/1999/xlink">
    <!-- Generator: Sketch 53.2 (72643) - https://sketchapp.com -->
    <title>MachineLearning</title>
    <desc>Created with Sketch.</desc>
    <g id="Part01" stroke="none" stroke-width="1" fill="none" fill-rule="evenodd">
        <g id="-g-Exyte_Services01" transform="translate(-744.000000, -1656.000000)" fill="#000000" fill-rule="nonzero">
            <g id="06" transform="translate(720.000000, 1632.000000)">
                <g id="MachineLearning" transform="translate(24.000000, 24.000000)">
                    <path d="M42,19.258 C42,19.171 42.005,19.085 42.005,19 C42.0027323,16.2656065 40.4084884,13.7828509 37.923,12.643 C37.2191718,5.39646242 31.0757397,-0.0993605198 23.7958512,0.00506304055 C16.5159626,0.109486601 10.532691,5.77925638 10.037,13.043 C4.1756525,13.5627677 -0.238630074,18.6032862 0.019200461,24.481983 C0.277030996,30.3606798 5.11565368,34.9953802 11,35 C11.5522847,35 12,34.5522847 12,34 C12,33.4477153 11.5522847,33 11,33 C6.02943725,33 2,28.9705627 2,24 C2,19.0294373 6.02943725,15 11,15 C11.5522847,15 12,14.5522847 12,14 C12.0033789,7.4988582 17.1863766,2.1843703 23.685394,2.01815293 C30.1844115,1.85193557 35.6322995,6.89453042 35.968,13.387 C35.9886863,13.7938579 36.2541129,14.1474964 36.639,14.281 C38.9723087,15.0778884 40.3675789,17.4660699 39.916,19.89 C39.8683729,20.1590408 39.9329034,20.4358533 40.0945927,20.6560983 C40.2562821,20.8763433 40.501048,21.0208388 40.772,21.056 C43.888991,21.4842248 46.1458081,24.2474506 45.9428725,27.3871683 C45.739937,30.5268859 43.1461821,32.9765951 40,33 L37,33 C36.4477153,33 36,33.4477153 36,34 C36,34.5522847 36.4477153,35 37,35 L40,35 C44.0226277,34.9923345 47.4139662,31.9988562 47.9209611,28.0082988 C48.4279561,24.0177415 45.8929123,20.2713242 42,19.258 L42,19.258 Z" id="Path"></path>
                    <path d="M36,40 C34.1815884,40.0068148 32.5965933,41.2393149 32.142,43 L26,43 C25.7274585,43.0267493 25.4572637,42.9300201 25.2636218,42.7363782 C25.0699799,42.5427363 24.9732507,42.2725415 25,42 L25,15.858 C26.9503067,15.354433 28.2219252,13.4792133 27.9681188,11.4809995 C27.7143124,9.48278569 26.0142681,7.98501665 24,7.98501665 C21.9857319,7.98501665 20.2856876,9.48278569 20.0318812,11.4809995 C19.7780748,13.4792133 21.0496933,15.354433 23,15.858 L23,42 C22.9765263,42.8026156 23.2850527,43.5793921 23.8528303,44.1471697 C24.4206079,44.7149473 25.1973844,45.0234737 26,45 L32.142,45 C32.6652114,47.0075927 34.6387022,48.2800579 36.6832858,47.9281251 C38.7278694,47.5761924 40.1623306,45.7171188 39.984187,43.6501297 C39.8060435,41.5831407 38.0746492,39.9969165 36,40 Z M24,14 C22.8954305,14 22,13.1045695 22,12 C22,10.8954305 22.8954305,10 24,10 C25.1045695,10 26,10.8954305 26,12 C26,13.1045695 25.1045695,14 24,14 Z M36,46 C34.8954305,46 34,45.1045695 34,44 C34,42.8954305 34.8954305,42 36,42 C37.1045695,42 38,42.8954305 38,44 C38,45.1045695 37.1045695,46 36,46 Z" id="Shape"></path>
                    <path d="M20,43 L15.858,43 C15.354433,41.0496933 13.4792133,39.7780748 11.4809995,40.0318812 C9.48278569,40.2856876 7.98501665,41.9857319 7.98501665,44 C7.98501665,46.0142681 9.48278569,47.7143124 11.4809995,47.9681188 C13.4792133,48.2219252 15.354433,46.9503067 15.858,45 L20,45 C20.5522847,45 21,44.5522847 21,44 C21,43.4477153 20.5522847,43 20,43 Z M12,46 C10.8954305,46 10,45.1045695 10,44 C10,42.8954305 10.8954305,42 12,42 C13.1045695,42 14,42.8954305 14,44 C14,45.1045695 13.1045695,46 12,46 Z" id="Shape"></path>
                    <path d="M20,22 C20.0077898,19.9194141 18.4192751,18.1802713 16.3464941,18.000057 C14.2737131,17.8198426 12.4088891,19.2587408 12.0574904,21.3094522 C11.7060917,23.3601636 12.985471,25.3378353 15,25.858 L15,32 C14.9765263,32.8026156 15.2850527,33.5793921 15.8528303,34.1471697 C16.4206079,34.7149473 17.1973844,35.0234737 18,35 L19,35 C19.5522847,35 20,34.5522847 20,34 C20,33.4477153 19.5522847,33 19,33 L18,33 C17.7274585,33.0267493 17.4572637,32.9300201 17.2636218,32.7363782 C17.0699799,32.5427363 16.9732507,32.2725415 17,32 L17,25.858 C18.7606851,25.4034067 19.9931852,23.8184116 20,22 Z M16,24 C14.8954305,24 14,23.1045695 14,22 C14,20.8954305 14.8954305,20 16,20 C17.1045695,20 18,20.8954305 18,22 C18,23.1045695 17.1045695,24 16,24 Z" id="Shape"></path>
                    <path d="M30,33 L29,33 C28.4477153,33 28,33.4477153 28,34 C28,34.5522847 28.4477153,35 29,35 L30,35 C30.8026156,35.0234737 31.5793921,34.7149473 32.1471697,34.1471697 C32.7149473,33.5793921 33.0234737,32.8026156 33,32 L33,25.858 C34.9503067,25.354433 36.2219252,23.4792133 35.9681188,21.4809995 C35.7143124,19.4827857 34.0142681,17.9850167 32,17.9850167 C29.9857319,17.9850167 28.2856876,19.4827857 28.0318812,21.4809995 C27.7780748,23.4792133 29.0496933,25.354433 31,25.858 L31,31.988 C31.029492,32.2622386 30.9341141,32.5352041 30.7402467,32.7313979 C30.5463793,32.9275917 30.2745709,33.0262187 30,33 Z M30,22 C30,20.8954305 30.8954305,20 32,20 C33.1045695,20 34,20.8954305 34,22 C34,23.1045695 33.1045695,24 32,24 C30.8954305,24 30,23.1045695 30,22 Z" id="Shape"></path>
                </g>
            </g>
        </g>
    </g>
</svg>