<?xml version="1.0" encoding="UTF-8"?>
<svg width="48px" height="36px" viewBox="0 0 48 36" version="1.1" xmlns="http://www.w3.org/2000/svg" xmlns:xlink="http://www.w3.org/1999/xlink">
    <!-- Generator: Sketch 53.2 (72643) - https://sketchapp.com -->
    <title>VR</title>
    <desc>Created with Sketch.</desc>
    <g id="Part01" stroke="none" stroke-width="1" fill="none" fill-rule="evenodd">
        <g id="-g-Exyte_Services01" transform="translate(-344.000000, -1662.000000)" fill="#000000" fill-rule="nonzero">
            <g id="05" transform="translate(320.000000, 1632.000000)">
                <g id="VR" transform="translate(24.000000, 30.000000)">
                    <path d="M47,14 L44,14 L44,9 C43.9966939,6.23994685 41.7600532,4.00330612 39,4 L28,4 C27.7836298,4 27.5730962,4.07017787 27.4,4.2 L24,6.75 L20.6,4.2 C20.4269038,4.07017787 20.2163702,4 20,4 L9,4 C6.23994685,4.00330612 4.00330612,6.23994685 4,9 L4,14 L1,14 C0.44771525,14 6.76353751e-17,14.4477153 0,15 L0,25 C6.76353751e-17,25.5522847 0.44771525,26 1,26 L4,26 L4,29 C4.00330612,31.7600532 6.23994685,33.9966939 9,34 L12.586,34 L14.293,35.707 C14.4804927,35.8945494 14.7348052,35.9999434 15,36 L33,36 C33.2651948,35.9999434 33.5195073,35.8945494 33.707,35.707 L35.414,34 L39,34 C41.7600532,33.9966939 43.9966939,31.7600532 44,29 L44,26 L47,26 C47.5522847,26 48,25.5522847 48,25 L48,15 C48,14.4477153 47.5522847,14 47,14 Z M42,22 L40,22 L40,18 L42,18 L42,22 Z M6,18 L8,18 L8,22 L6,22 L6,18 Z M2,24 L2,16 L4,16 L4,24 L2,24 Z M42,29 C42,30.6568542 40.6568542,32 39,32 L35,32 C34.7348052,32.0000566 34.4804927,32.1054506 34.293,32.293 L32.586,34 L15.414,34 L13.707,32.293 C13.5195073,32.1054506 13.2651948,32.0000566 13,32 L9,32 C7.34314575,32 6,30.6568542 6,29 L6,24 L8,24 C9.1045695,24 10,23.1045695 10,22 L10,18 C10,16.8954305 9.1045695,16 8,16 L6,16 L6,9 C6,7.34314575 7.34314575,6 9,6 L19.667,6 L23.4,8.8 C23.7555556,9.06666667 24.2444444,9.06666667 24.6,8.8 L28.333,6 L39,6 C40.6568542,6 42,7.34314575 42,9 L42,16 L40,16 C38.8954305,16 38,16.8954305 38,18 L38,22 C38,23.1045695 38.8954305,24 40,24 L42,24 L42,29 Z M46,24 L44,24 L44,16 L46,16 L46,24 Z" id="Shape"></path>
                    <path d="M14,2 L34,2 L34,3 L36,3 L36,1 C36,0.44771525 35.5522847,0 35,0 L13,0 C12.4477153,0 12,0.44771525 12,1 L12,3 L14,3 L14,2 Z" id="Path"></path>
                    <path d="M8,10 L8,12 L10,12 L10,10 L12,10 L12,8 L10,8 C9.46618474,7.98870579 8.95088836,8.19579064 8.5733395,8.5733395 C8.19579064,8.95088836 7.98870579,9.46618474 8,10 Z" id="Path"></path>
                    <rect id="Rectangle" x="12" y="8" width="4" height="2"></rect>
                    <polygon id="Path" points="14 30 23 30 23 32 25 32 25 30 34 30 34 28 14 28"></polygon>
                </g>
            </g>
        </g>
    </g>
</svg>